0
SECTION
2
HEADER
9
$INSUNITS
70
4
9
$ACADVER
1
AC1014
9
$HANDSEED
5
FFFF
0
ENDSEC
0
SECTION
2
TABLES
0
TABLE
2
VPORT
5
8
100
AcDbSymbolTable
0
ENDTAB
0
TABLE
2
LTYPE
5
5
100
AcDbSymbolTable
0
LTYPE
5
14
100
AcDbSymbolTableRecord
100
AcDbLinetypeTableRecord
2
BYBLOCK
70
0
0
LTYPE
5
15
100
AcDbSymbolTableRecord
100
AcDbLinetypeTableRecord
2
BYLAYER
70
0
0
ENDTAB
0
TABLE
2
LAYER
5
2
100
AcDbSymbolTable
70
2
0
LAYER
5
50
100
AcDbSymbolTableRecord
100
AcDbLayerTableRecord
2
0
70
0
6
CONTINUOUS
0
ENDTAB
0
TABLE
2
STYLE
5
3
100
AcDbSymbolTable
70
1
0
STYLE
5
11
100
AcDbSymbolTableRecord
100
AcDbTextStyleTableRecord
2
STANDARD
70
0
0
ENDTAB
0
TABLE
2
VIEW
5
6
100
AcDbSymbolTable
70
0
0
ENDTAB
0
TABLE
2
UCS
5
7
100
AcDbSymbolTable
70
0
0
ENDTAB
0
TABLE
2
APPID
5
9
100
AcDbSymbolTable
70
2
0
APPID
5
12
100
AcDbSymbolTableRecord
100
AcDbRegAppTableRecord
2
ACAD
70
0
0
ENDTAB
0
TABLE
2
DIMSTYLE
5
A
100
AcDbSymbolTable
70
1
0
ENDTAB
0
TABLE
2
BLOCK_RECORD
5
1
100
AcDbSymbolTable
70
1
0
BLOCK_RECORD
5
1F
100
AcDbSymbolTableRecord
100
AcDbBlockTableRecord
2
*MODEL_SPACE
0
BLOCK_RECORD
5
1B
100
AcDbSymbolTableRecord
100
AcDbBlockTableRecord
2
*PAPER_SPACE
0
ENDTAB
0
ENDSEC
0
SECTION
2
BLOCKS
0
BLOCK
5
20
100
AcDbEntity
100
AcDbBlockBegin
2
*MODEL_SPACE
0
ENDBLK
5
21
100
AcDbEntity
100
AcDbBlockEnd
0
BLOCK
5
1C
100
AcDbEntity
100
AcDbBlockBegin
2
*PAPER_SPACE
0
ENDBLK
5
1D
100
AcDbEntity
100
AcDbBlockEnd
0
ENDSEC
0
SECTION
2
ENTITIES
0
LINE
5
100
100
AcDbEntity
8
0
100
AcDbLine
10
-165.86015625776085
20
-27.445649309172214
30
0
11
-149.90578772895566
21
63.036070871721996
31
0
0
ARC
5
101
100
AcDbEntity
8
0
100
AcDbCircle
10
-154.04246322161433
20
-29.529427441175343
30
0
40
12.000000000000025
210
0
220
0
230
1
100
AcDbArc
50
170.00000000000023
51
250.5376777919742
0
LINE
5
102
100
AcDbEntity
8
0
100
AcDbLine
10
-50.538690630321113
20
-78.832677345911179
30
0
11
-158.04070607706464
21
-40.843757031073331
31
0
0
ARC
5
103
100
AcDbEntity
8
0
100
AcDbCircle
10
-46.540447774871012
20
-67.518347756011536
30
0
40
12.000000000001517
210
0
220
0
230
1
100
AcDbArc
50
250.53767779197781
51
259.99999999999943
0
LINE
5
104
100
AcDbEntity
8
0
100
AcDbLine
10
-30.198967603266645
20
-82.584910957608258
30
0
11
-48.624225906874571
21
-79.336040792159508
31
0
0
ARC
5
105
100
AcDbEntity
8
0
100
AcDbCircle
10
-28.115189471263896
20
-70.767217921460372
30
0
40
12.000000000001293
210
0
220
0
230
1
100
AcDbArc
50
260.00000000000313
51
269.99999999999943
0
LINE
5
106
100
AcDbEntity
8
0
100
AcDbLine
10
-28.11518947126401
20
-82.767217921461679
30
0
11
28.115189471264639
21
-82.767217921461679
31
0
0
ARC
5
107
100
AcDbEntity
8
0
100
AcDbCircle
10
28.115189471263893
20
-70.767217921460244
30
0
40
12.000000000001432
210
-0
220
0
230
1
100
AcDbArc
50
270.00000000000358
51
279.99999999999937
0
LINE
5
108
100
AcDbEntity
8
0
100
AcDbLine
10
30.198967603267178
20
-82.584910957608173
30
0
11
48.624225906873725
21
-79.336040792159665
31
0
0
ARC
5
109
100
AcDbEntity
8
0
100
AcDbCircle
10
46.540447774871751
20
-67.518347756014222
30
0
40
11.999999999998757
210
-0
220
0
230
1
100
AcDbArc
50
279.99999999999534
51
289.46232220802585
0
LINE
5
110
100
AcDbEntity
8
0
100
AcDbLine
10
50.538690630321639
20
-78.832677345911009
30
0
11
158.04070607706493
21
-40.84375703107321
31
0
0
ARC
5
111
100
AcDbEntity
8
0
100
AcDbCircle
10
154.04246322161436
20
-29.529427441175322
30
0
40
12.000000000000032
210
-0
220
0
230
1
100
AcDbArc
50
-70.537677791972811
51
9.9999999999998668
0
LINE
5
112
100
AcDbEntity
8
0
100
AcDbLine
10
165.86015625776088
20
-27.445649309172175
30
0
11
149.90578772894708
21
63.036070871770704
31
0
0
ARC
5
113
100
AcDbEntity
8
0
100
AcDbCircle
10
138.0880946927123
20
60.952292739821878
30
0
40
12.000000000077502
210
0
220
-0
230
1
100
AcDbArc
50
9.9999999996713136
51
89.999999999953857
0
ARC
5
114
100
AcDbEntity
8
0
100
AcDbCircle
10
-138.08809469280925
20
60.952292739718828
30
0
40
11.99999999999994
210
0
220
-0
230
1
100
AcDbArc
50
90
51
169.99999999999997
0
CIRCLE
5
115
100
AcDbEntity
8
0
100
AcDbCircle
10
-146.70059291667167
20
58.178552006386624
30
0
40
1.7500000000000084
210
0
220
-0
230
1
0
CIRCLE
5
116
100
AcDbEntity
8
0
100
AcDbCircle
10
-133.86094869204439
20
68.952292739718672
30
0
40
1.7500000000000044
210
0
220
-0
230
1
0
LINE
5
117
100
AcDbEntity
8
0
100
AcDbLine
10
-157.98169423366321
20
-28.83483473050763
30
0
11
-142.02732570485801
21
61.646885450386542
31
0
0
ARC
5
118
100
AcDbEntity
8
0
100
AcDbCircle
10
-138.08809469280925
20
60.952292739718828
30
0
40
3.9999999999999414
210
0
220
-0
230
1
100
AcDbArc
50
90
51
169.99999999999997
0
CIRCLE
5
119
100
AcDbEntity
8
0
100
AcDbCircle
10
-161.1937444007163
20
-24.016194514041441
30
0
40
1.75
210
0
220
-0
230
1
0
ARC
5
120
100
AcDbEntity
8
0
100
AcDbCircle
10
-154.04246322161433
20
-29.529427441175343
30
0
40
4.0000000000000373
210
0
220
0
230
1
100
AcDbArc
50
170.00000000000026
51
250.53767779197395
0
LINE
5
121
100
AcDbEntity
8
0
100
AcDbLine
10
-47.873195393354713
20
-71.289790952645703
30
0
11
-155.37521084009779
21
-33.300870637808011
31
0
0
CIRCLE
5
122
100
AcDbEntity
8
0
100
AcDbCircle
10
-152.75957085177163
20
-38.467589835024029
30
0
40
1.749999999999994
210
0
220
-0
230
1
0
ARC
5
123
100
AcDbEntity
8
0
100
AcDbCircle
10
-46.540447774871012
20
-67.518347756011536
30
0
40
4.0000000000015099
210
0
220
0
230
1
100
AcDbArc
50
250.53767779197784
51
259.99999999999807
0
LINE
5
124
100
AcDbEntity
8
0
100
AcDbLine
10
-28.809782181931631
20
-74.706448933510529
30
0
11
-47.23504048553913
21
-71.457578768061836
31
0
0
ARC
5
125
100
AcDbEntity
8
0
100
AcDbCircle
10
-28.115189471263896
20
-70.767217921460372
30
0
40
4.0000000000013003
210
0
220
0
230
1
100
AcDbArc
50
260.00000000000313
51
269.99999999999835
0
LINE
5
126
100
AcDbEntity
8
0
100
AcDbLine
10
-28.11518947126401
20
-74.767217921461679
30
0
11
28.115189471264141
21
-74.767217921461679
31
0
0
CIRCLE
5
127
100
AcDbEntity
8
0
100
AcDbCircle
10
-24.982169013760846
20
-78.767217921461679
30
0
40
1.7500000000000004
210
0
220
-0
230
1
0
CIRCLE
5
128
100
AcDbEntity
8
0
100
AcDbCircle
10
24.982169013760842
20
-78.767217921461679
30
0
40
1.7500000000000004
210
0
220
-0
230
1
0
ARC
5
129
100
AcDbEntity
8
0
100
AcDbCircle
10
28.115189471263893
20
-70.767217921460244
30
0
40
4.0000000000014335
210
-0
220
0
230
1
100
AcDbArc
50
270.00000000000358
51
279.99999999999812
0
LINE
5
130
100
AcDbEntity
8
0
100
AcDbLine
10
28.809782181931737
20
-74.706448933510515
30
0
11
47.235040485538924
21
-71.457578768061879
31
0
0
ARC
5
131
100
AcDbEntity
8
0
100
AcDbCircle
10
46.540447774871751
20
-67.518347756014222
30
0
40
3.9999999999987548
210
-0
220
0
230
1
100
AcDbArc
50
279.99999999999523
51
289.46232220802631
0
LINE
5
132
100
AcDbEntity
8
0
100
AcDbLine
10
47.873195393354806
20
-71.289790952645689
30
0
11
155.37521084009791
21
-33.300870637807975
31
0
0
CIRCLE
5
133
100
AcDbEntity
8
0
100
AcDbCircle
10
152.75957085177177
20
-38.467589835023986
30
0
40
1.7499999999999964
210
0
220
-0
230
1
0
ARC
5
134
100
AcDbEntity
8
0
100
AcDbCircle
10
154.04246322161436
20
-29.529427441175322
30
0
40
4.0000000000000346
210
-0
220
0
230
1
100
AcDbArc
50
-70.53767779197301
51
9.9999999999997193
0
LINE
5
135
100
AcDbEntity
8
0
100
AcDbLine
10
157.98169423366321
20
-28.834834730507616
30
0
11
142.02732570484145
21
61.646885450480475
31
0
0
CIRCLE
5
136
100
AcDbEntity
8
0
100
AcDbCircle
10
161.1937444007163
20
-24.01619451404132
30
0
40
1.7499999999999936
210
0
220
-0
230
1
0
CIRCLE
5
137
100
AcDbEntity
8
0
100
AcDbCircle
10
146.70059291664427
20
58.178552006542034
30
0
40
1.7500000000000071
210
0
220
-0
230
1
0
ARC
5
138
100
AcDbEntity
8
0
100
AcDbCircle
10
138.0880946927123
20
60.952292739821878
30
0
40
4.0000000000775069
210
0
220
-0
230
1
100
AcDbArc
50
9.9999999996714237
51
89.999999999860776
0
CIRCLE
5
139
100
AcDbEntity
8
0
100
AcDbCircle
10
133.86094869199457
20
68.95229273989662
30
0
40
1.7500000000000071
210
0
220
-0
230
1
0
CIRCLE
5
140
100
AcDbEntity
8
0
100
AcDbCircle
10
13.999980261710185
20
68.952292739818233
30
0
40
1.749999999999998
210
0
220
-0
230
1
0
CIRCLE
5
141
100
AcDbEntity
8
0
100
AcDbCircle
10
-14.000019738289765
20
68.952292739799915
30
0
40
1.749999999999998
210
0
220
-0
230
1
0
LINE
5
142
100
AcDbEntity
8
0
100
AcDbLine
10
-138.08809469280925
20
64.952292739718771
30
0
11
-6.0000197382897724
21
64.952292739718771
31
0
0
LINE
5
143
100
AcDbEntity
8
0
100
AcDbLine
10
138.08809469272202
20
64.952292739891092
30
0
11
5.9999802617101849
21
64.952292739891092
31
0
0
LINE
5
144
100
AcDbEntity
8
0
100
AcDbLine
10
-6.0000197382897644
20
70.452292739718771
30
0
11
-6.0000197382897653
21
64.952292739793052
31
0
0
ARC
5
145
100
AcDbEntity
8
0
100
AcDbCircle
10
-8.5000197382897742
20
70.452292739718757
30
0
40
2.5000000000000089
210
0
220
-0
230
1
100
AcDbArc
50
0
51
89.999999999999545
0
LINE
5
146
100
AcDbEntity
8
0
100
AcDbLine
10
5.9999802617101894
20
64.952280885479951
30
0
11
5.9999802617101849
21
70.452292739889813
31
0
0
ARC
5
147
100
AcDbEntity
8
0
100
AcDbCircle
10
8.4999802617101938
20
70.452292739889813
30
0
40
2.5000000000000089
210
0
220
0
230
1
100
AcDbArc
50
90.000000000000611
51
180
0
LINE
5
148
100
AcDbEntity
8
0
100
AcDbLine
10
138.08809469272197
20
72.952292739891092
30
0
11
8.4999802617102027
21
72.952292739889813
31
0
0
LINE
5
149
100
AcDbEntity
8
0
100
AcDbLine
10
-8.5000197382897547
20
72.952292739718771
30
0
11
-138.08809469280925
21
72.952292739718771
31
0
0
ENDSEC
0
SECTION
2
OBJECTS
0
DICTIONARY
5
C
100
AcDbDictionary
3
ACAD_GROUP
350
D
3
ACAD_MLINESTYLE
350
17
0
DICTIONARY
5
D
100
AcDbDictionary
0
DICTIONARY
5
1A
330
C
100
AcDbDictionary
0
DICTIONARY
5
17
100
AcDbDictionary
0
ENDSEC
0
EOF
