0
SECTION
2
HEADER
9
$INSUNITS
70
4
9
$ACADVER
1
AC1014
9
$HANDSEED
5
FFFF
0
ENDSEC
0
SECTION
2
TABLES
0
TABLE
2
VPORT
5
8
100
AcDbSymbolTable
0
ENDTAB
0
TABLE
2
LTYPE
5
5
100
AcDbSymbolTable
0
LTYPE
5
14
100
AcDbSymbolTableRecord
100
AcDbLinetypeTableRecord
2
BYBLOCK
70
0
0
LTYPE
5
15
100
AcDbSymbolTableRecord
100
AcDbLinetypeTableRecord
2
BYLAYER
70
0
0
ENDTAB
0
TABLE
2
LAYER
5
2
100
AcDbSymbolTable
70
2
0
LAYER
5
50
100
AcDbSymbolTableRecord
100
AcDbLayerTableRecord
2
0
70
0
6
CONTINUOUS
0
ENDTAB
0
TABLE
2
STYLE
5
3
100
AcDbSymbolTable
70
1
0
STYLE
5
11
100
AcDbSymbolTableRecord
100
AcDbTextStyleTableRecord
2
STANDARD
70
0
0
ENDTAB
0
TABLE
2
VIEW
5
6
100
AcDbSymbolTable
70
0
0
ENDTAB
0
TABLE
2
UCS
5
7
100
AcDbSymbolTable
70
0
0
ENDTAB
0
TABLE
2
APPID
5
9
100
AcDbSymbolTable
70
2
0
APPID
5
12
100
AcDbSymbolTableRecord
100
AcDbRegAppTableRecord
2
ACAD
70
0
0
ENDTAB
0
TABLE
2
DIMSTYLE
5
A
100
AcDbSymbolTable
70
1
0
ENDTAB
0
TABLE
2
BLOCK_RECORD
5
1
100
AcDbSymbolTable
70
1
0
BLOCK_RECORD
5
1F
100
AcDbSymbolTableRecord
100
AcDbBlockTableRecord
2
*MODEL_SPACE
0
BLOCK_RECORD
5
1B
100
AcDbSymbolTableRecord
100
AcDbBlockTableRecord
2
*PAPER_SPACE
0
ENDTAB
0
ENDSEC
0
SECTION
2
BLOCKS
0
BLOCK
5
20
100
AcDbEntity
100
AcDbBlockBegin
2
*MODEL_SPACE
0
ENDBLK
5
21
100
AcDbEntity
100
AcDbBlockEnd
0
BLOCK
5
1C
100
AcDbEntity
100
AcDbBlockBegin
2
*PAPER_SPACE
0
ENDBLK
5
1D
100
AcDbEntity
100
AcDbBlockEnd
0
ENDSEC
0
SECTION
2
ENTITIES
0
ARC
5
100
100
AcDbEntity
8
0
100
AcDbCircle
10
-138.08809469280925
20
60.952292739718828
30
0
40
11.99999999999994
210
0
220
-0
230
1
100
AcDbArc
50
90
51
169.99999999999997
0
CIRCLE
5
101
100
AcDbEntity
8
0
100
AcDbCircle
10
-146.70059291667167
20
58.178552006386624
30
0
40
1.0500000000000043
210
0
220
-0
230
1
0
LINE
5
102
100
AcDbEntity
8
0
100
AcDbLine
10
-165.86015625776085
20
-27.445649309172214
30
0
11
-149.90578772895566
21
63.036070871721996
31
0
0
CIRCLE
5
103
100
AcDbEntity
8
0
100
AcDbCircle
10
-161.1937444007163
20
-24.016194514041441
30
0
40
1.0500000000000052
210
0
220
-0
230
1
0
ARC
5
104
100
AcDbEntity
8
0
100
AcDbCircle
10
-154.04246322161433
20
-29.529427441175343
30
0
40
12.000000000000025
210
0
220
0
230
1
100
AcDbArc
50
170.00000000000023
51
250.5376777919742
0
CIRCLE
5
105
100
AcDbEntity
8
0
100
AcDbCircle
10
-152.75957085177163
20
-38.467589835024029
30
0
40
1.0500000000000065
210
0
220
-0
230
1
0
LINE
5
106
100
AcDbEntity
8
0
100
AcDbLine
10
-50.538690630321113
20
-78.832677345911179
30
0
11
-158.04070607706464
21
-40.843757031073331
31
0
0
ARC
5
107
100
AcDbEntity
8
0
100
AcDbCircle
10
-46.540447774871012
20
-67.518347756011536
30
0
40
12.000000000001517
210
0
220
0
230
1
100
AcDbArc
50
250.53767779197781
51
259.99999999999943
0
LINE
5
108
100
AcDbEntity
8
0
100
AcDbLine
10
-30.198967603266645
20
-82.584910957608258
30
0
11
-48.624225906874571
21
-79.336040792159508
31
0
0
ARC
5
109
100
AcDbEntity
8
0
100
AcDbCircle
10
-28.115189471263896
20
-70.767217921460372
30
0
40
12.000000000001293
210
0
220
0
230
1
100
AcDbArc
50
260.00000000000313
51
269.99999999999943
0
LINE
5
110
100
AcDbEntity
8
0
100
AcDbLine
10
-28.11518947126401
20
-82.767217921461679
30
0
11
28.115189471264639
21
-82.767217921461679
31
0
0
CIRCLE
5
111
100
AcDbEntity
8
0
100
AcDbCircle
10
-24.982169013760846
20
-78.767217921461679
30
0
40
1.05
210
0
220
-0
230
1
0
CIRCLE
5
112
100
AcDbEntity
8
0
100
AcDbCircle
10
24.982169013760842
20
-78.767217921461679
30
0
40
1.0499999999999994
210
0
220
-0
230
1
0
ARC
5
113
100
AcDbEntity
8
0
100
AcDbCircle
10
28.115189471263893
20
-70.767217921460244
30
0
40
12.000000000001432
210
-0
220
0
230
1
100
AcDbArc
50
270.00000000000358
51
279.99999999999937
0
LINE
5
114
100
AcDbEntity
8
0
100
AcDbLine
10
30.198967603267178
20
-82.584910957608173
30
0
11
48.624225906873725
21
-79.336040792159665
31
0
0
ARC
5
115
100
AcDbEntity
8
0
100
AcDbCircle
10
46.540447774871751
20
-67.518347756014222
30
0
40
11.999999999998757
210
-0
220
0
230
1
100
AcDbArc
50
279.99999999999534
51
289.46232220802585
0
LINE
5
116
100
AcDbEntity
8
0
100
AcDbLine
10
50.538690630321639
20
-78.832677345911009
30
0
11
158.04070607706493
21
-40.84375703107321
31
0
0
CIRCLE
5
117
100
AcDbEntity
8
0
100
AcDbCircle
10
152.75957085177177
20
-38.467589835023986
30
0
40
1.0500000000000067
210
0
220
-0
230
1
0
ARC
5
118
100
AcDbEntity
8
0
100
AcDbCircle
10
154.04246322161436
20
-29.529427441175322
30
0
40
12.000000000000032
210
-0
220
0
230
1
100
AcDbArc
50
-70.537677791972811
51
9.9999999999998668
0
CIRCLE
5
119
100
AcDbEntity
8
0
100
AcDbCircle
10
161.1937444007163
20
-24.01619451404132
30
0
40
1.0499999999999892
210
0
220
-0
230
1
0
LINE
5
120
100
AcDbEntity
8
0
100
AcDbLine
10
165.86015625776088
20
-27.445649309172175
30
0
11
149.90578772894708
21
63.036070871770704
31
0
0
CIRCLE
5
121
100
AcDbEntity
8
0
100
AcDbCircle
10
146.70059291664427
20
58.178552006542034
30
0
40
1.0499999999999967
210
0
220
-0
230
1
0
ARC
5
122
100
AcDbEntity
8
0
100
AcDbCircle
10
138.0880946927123
20
60.952292739821878
30
0
40
12.000000000077502
210
0
220
-0
230
1
100
AcDbArc
50
9.9999999996713136
51
89.999999999953857
0
CIRCLE
5
123
100
AcDbEntity
8
0
100
AcDbCircle
10
133.86094869199457
20
68.95229273989662
30
0
40
1.0499999999999994
210
0
220
-0
230
1
0
CIRCLE
5
124
100
AcDbEntity
8
0
100
AcDbCircle
10
13.999980261710185
20
68.952292739818233
30
0
40
1.0499999999999996
210
0
220
-0
230
1
0
LINE
5
125
100
AcDbEntity
8
0
100
AcDbLine
10
-138.08809469280925
20
72.952292739718771
30
0
11
138.08809469271233
21
72.952292739899391
31
0
0
CIRCLE
5
126
100
AcDbEntity
8
0
100
AcDbCircle
10
-14.000019738289765
20
68.952292739799915
30
0
40
1.0500000000000003
210
0
220
-0
230
1
0
CIRCLE
5
127
100
AcDbEntity
8
0
100
AcDbCircle
10
-133.86094869204439
20
68.952292739718672
30
0
40
1.0500000000000032
210
0
220
-0
230
1
0
LINE
5
128
100
AcDbEntity
8
0
100
AcDbLine
10
-139.76629395516377
20
62.952292739718807
30
0
11
-121.00570626028122
21
59.644294955163787
31
0
0
LINE
5
129
100
AcDbEntity
8
0
100
AcDbLine
10
-121.00570626028122
20
59.644294955163787
30
0
11
-102.24511856539864
21
56.336297170608773
31
0
0
LINE
5
130
100
AcDbEntity
8
0
100
AcDbLine
10
-101.41811911925987
20
61.026444094329442
30
0
11
-82.657531424377311
21
57.718446309774407
31
0
0
LINE
5
131
100
AcDbEntity
8
0
100
AcDbLine
10
-81.830531978238554
20
62.408593233495054
30
0
11
-63.069944283355994
21
59.100595448940027
31
0
0
LINE
5
132
100
AcDbEntity
8
0
100
AcDbLine
10
-63.896943729494751
20
54.410448525219408
30
0
11
-45.136356034612184
21
51.102450740664374
31
0
0
LINE
5
133
100
AcDbEntity
8
0
100
AcDbLine
10
-45.963355480750948
20
46.412303816943762
30
0
11
-27.202767785868378
21
43.10430603238872
31
0
0
CIRCLE
5
134
100
AcDbEntity
8
0
100
AcDbCircle
10
-42.037000000000006
20
56.896000000000001
30
0
40
0.99999999999999645
210
0
220
-0
230
1
0
CIRCLE
5
135
100
AcDbEntity
8
0
100
AcDbCircle
10
-35.941000000000003
20
56.896000000000001
30
0
40
1.0000000000000007
210
0
220
-0
230
1
0
CIRCLE
5
136
100
AcDbEntity
8
0
100
AcDbCircle
10
-29.972000000000001
20
56.896000000000001
30
0
40
0.99999999999999645
210
0
220
-0
230
1
0
LINE
5
137
100
AcDbEntity
8
0
100
AcDbLine
10
-27.202767785868378
20
43.10430603238872
30
0
11
-30.510765570423395
21
24.343718337506193
31
0
0
LINE
5
138
100
AcDbEntity
8
0
100
AcDbLine
10
-30.510765570423377
20
24.343718337506193
30
0
11
-33.818763354978394
21
5.5831306426236083
31
0
0
LINE
5
139
100
AcDbEntity
8
0
100
AcDbLine
10
-33.818763354978373
20
5.5831306426236083
30
0
11
-37.126761139533393
21
-13.177457052258958
31
0
0
LINE
5
140
100
AcDbEntity
8
0
100
AcDbLine
10
-37.126761139533372
20
-13.177457052258958
30
0
11
-40.434758924088392
21
-31.938044747141525
31
0
0
LINE
5
141
100
AcDbEntity
8
0
100
AcDbLine
10
-40.434758924088392
20
-31.938044747141525
30
0
11
-21.674171229205825
21
-35.246042531696546
31
0
0
LINE
5
142
100
AcDbEntity
8
0
100
AcDbLine
10
-21.674171229205825
20
-35.246042531696546
30
0
11
-28.290166798315866
21
-72.767217921461679
31
0
0
LINE
5
143
100
AcDbEntity
8
0
100
AcDbLine
10
-43.742756708643412
20
-50.698632442024092
30
0
11
-62.503344403525972
21
-47.390634657469079
31
0
0
LINE
5
144
100
AcDbEntity
8
0
100
AcDbLine
10
-61.676344957387215
20
-42.700487733748446
30
0
11
-80.436932652269775
21
-39.392489949193426
31
0
0
LINE
5
145
100
AcDbEntity
8
0
100
AcDbLine
10
-98.370520901013592
20
-31.394345240917776
30
0
11
-79.609933206131018
21
-34.702343025472793
31
0
0
LINE
5
146
100
AcDbEntity
8
0
100
AcDbLine
10
-99.197520347152334
20
-36.084492164638405
30
0
11
-117.95810804203491
21
-32.776494380083392
31
0
0
LINE
5
147
100
AcDbEntity
8
0
100
AcDbLine
10
-118.78510748817368
20
-37.46664130380406
30
0
11
-137.54569518305624
21
-34.15864351924904
31
0
0
LINE
5
148
100
AcDbEntity
8
0
100
AcDbLine
10
-137.54569518305624
20
-34.15864351924904
30
0
11
-156.3062828779388
21
-30.850645734694027
31
0
0
LINE
5
149
100
AcDbEntity
8
0
100
AcDbLine
10
-156.3062828779388
20
-30.850645734694027
30
0
11
-152.9982850933838
21
-12.09005803981146
31
0
0
LINE
5
150
100
AcDbEntity
8
0
100
AcDbLine
10
-152.9982850933838
20
-12.09005803981146
30
0
11
-149.69028730882877
21
6.6705296550711068
31
0
0
LINE
5
151
100
AcDbEntity
8
0
100
AcDbLine
10
-149.6902873088288
20
6.6705296550711068
30
0
11
-146.38228952427377
21
25.431117349953674
31
0
0
LINE
5
152
100
AcDbEntity
8
0
100
AcDbLine
10
-146.3822895242738
20
25.431117349953674
30
0
11
-143.07429173971877
21
44.19170504483624
31
0
0
LINE
5
153
100
AcDbEntity
8
0
100
AcDbLine
10
-143.0742917397188
20
44.19170504483624
30
0
11
-139.76629395516377
21
62.952292739718807
31
0
0
LINE
5
154
100
AcDbEntity
8
0
100
AcDbLine
10
-28.290166798315866
20
-72.767217921461679
30
0
11
-47.05075449319844
21
-69.459220136906637
31
0
0
LINE
5
155
100
AcDbEntity
8
0
100
AcDbLine
10
-10.874999999999995
20
-29.943608960730828
30
0
11
10.874999999999995
21
-29.943608960730828
31
0
0
ARC
5
156
100
AcDbEntity
8
0
100
AcDbCircle
10
-10.874999999999995
20
-34.943608960730828
30
0
40
5
210
0
220
-0
230
1
100
AcDbArc
50
90
51
180
0
LINE
5
157
100
AcDbEntity
8
0
100
AcDbLine
10
-15.875
20
-56.873608960730806
30
0
11
-15.874999999999995
21
-34.943608960730828
31
0
0
ARC
5
158
100
AcDbEntity
8
0
100
AcDbCircle
10
-10.874999999999988
20
-56.873608960730806
30
0
40
5.0000000000000107
210
0
220
0
230
1
100
AcDbArc
50
180
51
270
0
LINE
5
159
100
AcDbEntity
8
0
100
AcDbLine
10
10.874999999999979
20
-61.87360896073082
30
0
11
-10.874999999999988
21
-61.87360896073082
31
0
0
ARC
5
160
100
AcDbEntity
8
0
100
AcDbCircle
10
10.874999999999979
20
-56.873608960730806
30
0
40
5.0000000000000178
210
-0
220
0
230
1
100
AcDbArc
50
-90
51
0
0
LINE
5
161
100
AcDbEntity
8
0
100
AcDbLine
10
15.875000000000004
20
-34.943608960730842
30
0
11
15.874999999999996
21
-56.873608960730806
31
0
0
ARC
5
162
100
AcDbEntity
8
0
100
AcDbCircle
10
10.874999999999995
20
-34.943608960730842
30
0
40
5.0000000000000089
210
0
220
-0
230
1
100
AcDbArc
50
0
51
90
0
LINE
5
163
100
AcDbEntity
8
0
100
AcDbLine
10
9.5250000000000021
20
-19.049999999999994
30
0
11
-9.5249999999999986
21
-19.049999999999994
31
0
0
LINE
5
164
100
AcDbEntity
8
0
100
AcDbLine
10
-9.5249999999999986
20
-9.5250000000000057
30
0
11
-28.574999999999999
21
-9.5250000000000057
31
0
0
LINE
5
165
100
AcDbEntity
8
0
100
AcDbLine
10
-28.574999999999999
20
-9.5250000000000057
30
0
11
-28.574999999999999
21
9.5249999999999879
31
0
0
LINE
5
166
100
AcDbEntity
8
0
100
AcDbLine
10
-28.574999999999999
20
9.5249999999999879
30
0
11
-9.5249999999999986
21
9.5249999999999879
31
0
0
LINE
5
167
100
AcDbEntity
8
0
100
AcDbLine
10
-9.5249999999999986
20
19.049999999999994
30
0
11
9.5250000000000021
21
19.049999999999994
31
0
0
LINE
5
168
100
AcDbEntity
8
0
100
AcDbLine
10
9.5250000000000021
20
9.5249999999999879
30
0
11
28.574999999999999
21
9.5249999999999879
31
0
0
LINE
5
169
100
AcDbEntity
8
0
100
AcDbLine
10
28.574999999999999
20
9.5249999999999879
30
0
11
28.574999999999999
21
-9.5250000000000057
31
0
0
LINE
5
170
100
AcDbEntity
8
0
100
AcDbLine
10
28.574999999999999
20
-9.5250000000000057
30
0
11
9.5250000000000021
21
-9.5250000000000057
31
0
0
LINE
5
171
100
AcDbEntity
8
0
100
AcDbLine
10
7.0041628375020171
20
34.00114636990142
30
0
11
-6.9958371624979847
21
34.00114636990142
31
0
0
LINE
5
172
100
AcDbEntity
8
0
100
AcDbLine
10
7.0041628375020171
20
48.00114636990142
30
0
11
7.0041628375020171
21
34.00114636990142
31
0
0
LINE
5
173
100
AcDbEntity
8
0
100
AcDbLine
10
-6.9958371624979847
20
48.00114636990142
30
0
11
7.0041628375020171
21
48.00114636990142
31
0
0
LINE
5
174
100
AcDbEntity
8
0
100
AcDbLine
10
-6.9958371624979847
20
34.00114636990142
30
0
11
-6.9958371624979847
21
48.00114636990142
31
0
0
LINE
5
175
100
AcDbEntity
8
0
100
AcDbLine
10
27.202767785868378
20
43.10430603238872
30
0
11
30.510765570423395
21
24.343718337506193
31
0
0
LINE
5
176
100
AcDbEntity
8
0
100
AcDbLine
10
30.510765570423377
20
24.343718337506193
30
0
11
33.818763354978394
21
5.5831306426236083
31
0
0
LINE
5
177
100
AcDbEntity
8
0
100
AcDbLine
10
33.818763354978373
20
5.5831306426236083
30
0
11
37.126761139533393
21
-13.177457052258958
31
0
0
LINE
5
178
100
AcDbEntity
8
0
100
AcDbLine
10
37.126761139533372
20
-13.177457052258958
30
0
11
40.434758924088392
21
-31.938044747141525
31
0
0
LINE
5
179
100
AcDbEntity
8
0
100
AcDbLine
10
21.674171229205818
20
-35.246042531696553
30
0
11
40.434758924088392
21
-31.938044747141525
31
0
0
LINE
5
180
100
AcDbEntity
8
0
100
AcDbLine
10
28.290166798315862
20
-72.767217921461679
30
0
11
21.674171229205818
21
-35.246042531696553
31
0
0
LINE
5
181
100
AcDbEntity
8
0
100
AcDbLine
10
47.050754493198433
20
-69.459220136906652
30
0
11
28.290166798315862
21
-72.767217921461679
31
0
0
LINE
5
182
100
AcDbEntity
8
0
100
AcDbLine
10
43.742756708643412
20
-50.698632442024092
30
0
11
62.503344403525972
21
-47.390634657469079
31
0
0
LINE
5
183
100
AcDbEntity
8
0
100
AcDbLine
10
61.676344957387215
20
-42.700487733748446
30
0
11
80.436932652269775
21
-39.392489949193426
31
0
0
LINE
5
184
100
AcDbEntity
8
0
100
AcDbLine
10
79.609933206131018
20
-34.702343025472793
30
0
11
98.370520901013592
21
-31.394345240917776
31
0
0
LINE
5
185
100
AcDbEntity
8
0
100
AcDbLine
10
99.197520347152334
20
-36.084492164638405
30
0
11
117.95810804203491
21
-32.776494380083392
31
0
0
LINE
5
186
100
AcDbEntity
8
0
100
AcDbLine
10
118.78510748817368
20
-37.46664130380406
30
0
11
137.54569518305624
21
-34.15864351924904
31
0
0
LINE
5
187
100
AcDbEntity
8
0
100
AcDbLine
10
137.54569518305624
20
-34.15864351924904
30
0
11
156.3062828779388
21
-30.850645734694027
31
0
0
LINE
5
188
100
AcDbEntity
8
0
100
AcDbLine
10
156.3062828779388
20
-30.850645734694027
30
0
11
152.9982850933838
21
-12.09005803981146
31
0
0
LINE
5
189
100
AcDbEntity
8
0
100
AcDbLine
10
152.9982850933838
20
-12.09005803981146
30
0
11
149.69028730882877
21
6.6705296550711068
31
0
0
LINE
5
190
100
AcDbEntity
8
0
100
AcDbLine
10
149.6902873088288
20
6.6705296550711068
30
0
11
146.38228952427377
21
25.431117349953674
31
0
0
LINE
5
191
100
AcDbEntity
8
0
100
AcDbLine
10
146.3822895242738
20
25.431117349953674
30
0
11
143.07429173971877
21
44.19170504483624
31
0
0
LINE
5
192
100
AcDbEntity
8
0
100
AcDbLine
10
143.0742917397188
20
44.19170504483624
30
0
11
139.76629395516377
21
62.952292739718807
31
0
0
LINE
5
193
100
AcDbEntity
8
0
100
AcDbLine
10
139.76629395516377
20
62.952292739718807
30
0
11
121.00570626028122
21
59.644294955163787
31
0
0
LINE
5
194
100
AcDbEntity
8
0
100
AcDbLine
10
121.00570626028122
20
59.644294955163787
30
0
11
102.24511856539864
21
56.336297170608773
31
0
0
LINE
5
195
100
AcDbEntity
8
0
100
AcDbLine
10
101.41811911925987
20
61.026444094329442
30
0
11
82.657531424377311
21
57.718446309774407
31
0
0
LINE
5
196
100
AcDbEntity
8
0
100
AcDbLine
10
81.830531978238554
20
62.408593233495054
30
0
11
63.069944283355994
21
59.100595448940027
31
0
0
LINE
5
197
100
AcDbEntity
8
0
100
AcDbLine
10
63.896943729494751
20
54.410448525219408
30
0
11
45.136356034612184
21
51.102450740664374
31
0
0
LINE
5
198
100
AcDbEntity
8
0
100
AcDbLine
10
45.963355480750948
20
46.412303816943762
30
0
11
27.202767785868378
21
43.10430603238872
31
0
0
LINE
5
199
100
AcDbEntity
8
0
100
AcDbLine
10
-102.24511856539864
20
56.336297170608773
30
0
11
-101.41811911925987
21
61.026444094329442
31
0
0
LINE
5
200
100
AcDbEntity
8
0
100
AcDbLine
10
-82.657531424377311
20
57.718446309774407
30
0
11
-81.830531978238554
21
62.408593233495054
31
0
0
LINE
5
201
100
AcDbEntity
8
0
100
AcDbLine
10
-63.896943729494751
20
54.410448525219408
30
0
11
-63.069944283355994
21
59.100595448940027
31
0
0
LINE
5
202
100
AcDbEntity
8
0
100
AcDbLine
10
-45.963355480750948
20
46.412303816943762
30
0
11
-45.136356034612184
21
51.102450740664374
31
0
0
LINE
5
203
100
AcDbEntity
8
0
100
AcDbLine
10
-47.05075449319844
20
-69.459220136906637
30
0
11
-43.742756708643412
21
-50.698632442024092
31
0
0
LINE
5
204
100
AcDbEntity
8
0
100
AcDbLine
10
-62.503344403525972
20
-47.390634657469079
30
0
11
-61.676344957387215
21
-42.700487733748446
31
0
0
LINE
5
205
100
AcDbEntity
8
0
100
AcDbLine
10
-80.436932652269775
20
-39.392489949193426
30
0
11
-79.609933206131018
21
-34.702343025472793
31
0
0
LINE
5
206
100
AcDbEntity
8
0
100
AcDbLine
10
-99.197520347152334
20
-36.084492164638405
30
0
11
-98.370520901013592
21
-31.394345240917776
31
0
0
LINE
5
207
100
AcDbEntity
8
0
100
AcDbLine
10
-118.78510748817368
20
-37.46664130380406
30
0
11
-117.95810804203491
21
-32.776494380083392
31
0
0
LINE
5
208
100
AcDbEntity
8
0
100
AcDbLine
10
-9.5249999999999986
20
-19.049999999999994
30
0
11
-9.5249999999999986
21
-9.5250000000000057
31
0
0
LINE
5
209
100
AcDbEntity
8
0
100
AcDbLine
10
9.5250000000000021
20
-19.049999999999994
30
0
11
9.5250000000000021
21
-9.5250000000000057
31
0
0
LINE
5
210
100
AcDbEntity
8
0
100
AcDbLine
10
9.5250000000000021
20
9.5249999999999879
30
0
11
9.5250000000000021
21
19.049999999999994
31
0
0
LINE
5
211
100
AcDbEntity
8
0
100
AcDbLine
10
-9.5249999999999986
20
19.049999999999994
30
0
11
-9.5249999999999986
21
9.5249999999999879
31
0
0
LINE
5
212
100
AcDbEntity
8
0
100
AcDbLine
10
47.050754493198433
20
-69.459220136906652
30
0
11
43.742756708643412
21
-50.698632442024092
31
0
0
LINE
5
213
100
AcDbEntity
8
0
100
AcDbLine
10
62.503344403525972
20
-47.390634657469079
30
0
11
61.676344957387215
21
-42.700487733748446
31
0
0
LINE
5
214
100
AcDbEntity
8
0
100
AcDbLine
10
80.436932652269775
20
-39.392489949193426
30
0
11
79.609933206131018
21
-34.702343025472793
31
0
0
LINE
5
215
100
AcDbEntity
8
0
100
AcDbLine
10
98.370520901013592
20
-31.394345240917776
30
0
11
99.197520347152334
21
-36.084492164638405
31
0
0
LINE
5
216
100
AcDbEntity
8
0
100
AcDbLine
10
117.95810804203491
20
-32.776494380083392
30
0
11
118.78510748817368
21
-37.46664130380406
31
0
0
LINE
5
217
100
AcDbEntity
8
0
100
AcDbLine
10
102.24511856539864
20
56.336297170608773
30
0
11
101.41811911925987
21
61.026444094329442
31
0
0
LINE
5
218
100
AcDbEntity
8
0
100
AcDbLine
10
82.657531424377311
20
57.718446309774407
30
0
11
81.830531978238554
21
62.408593233495054
31
0
0
LINE
5
219
100
AcDbEntity
8
0
100
AcDbLine
10
63.069944283355994
20
59.100595448940027
30
0
11
63.896943729494751
21
54.410448525219408
31
0
0
LINE
5
220
100
AcDbEntity
8
0
100
AcDbLine
10
45.136356034612184
20
51.102450740664374
30
0
11
45.963355480750948
21
46.412303816943762
31
0
0
ENDSEC
0
SECTION
2
OBJECTS
0
DICTIONARY
5
C
100
AcDbDictionary
3
ACAD_GROUP
350
D
3
ACAD_MLINESTYLE
350
17
0
DICTIONARY
5
D
100
AcDbDictionary
0
DICTIONARY
5
1A
330
C
100
AcDbDictionary
0
DICTIONARY
5
17
100
AcDbDictionary
0
ENDSEC
0
EOF
