0
SECTION
2
HEADER
9
$INSUNITS
70
4
9
$ACADVER
1
AC1014
9
$HANDSEED
5
FFFF
0
ENDSEC
0
SECTION
2
TABLES
0
TABLE
2
VPORT
5
8
100
AcDbSymbolTable
0
ENDTAB
0
TABLE
2
LTYPE
5
5
100
AcDbSymbolTable
0
LTYPE
5
14
100
AcDbSymbolTableRecord
100
AcDbLinetypeTableRecord
2
BYBLOCK
70
0
0
LTYPE
5
15
100
AcDbSymbolTableRecord
100
AcDbLinetypeTableRecord
2
BYLAYER
70
0
0
ENDTAB
0
TABLE
2
LAYER
5
2
100
AcDbSymbolTable
70
2
0
LAYER
5
50
100
AcDbSymbolTableRecord
100
AcDbLayerTableRecord
2
0
70
0
6
CONTINUOUS
0
ENDTAB
0
TABLE
2
STYLE
5
3
100
AcDbSymbolTable
70
1
0
STYLE
5
11
100
AcDbSymbolTableRecord
100
AcDbTextStyleTableRecord
2
STANDARD
70
0
0
ENDTAB
0
TABLE
2
VIEW
5
6
100
AcDbSymbolTable
70
0
0
ENDTAB
0
TABLE
2
UCS
5
7
100
AcDbSymbolTable
70
0
0
ENDTAB
0
TABLE
2
APPID
5
9
100
AcDbSymbolTable
70
2
0
APPID
5
12
100
AcDbSymbolTableRecord
100
AcDbRegAppTableRecord
2
ACAD
70
0
0
ENDTAB
0
TABLE
2
DIMSTYLE
5
A
100
AcDbSymbolTable
70
1
0
ENDTAB
0
TABLE
2
BLOCK_RECORD
5
1
100
AcDbSymbolTable
70
1
0
BLOCK_RECORD
5
1F
100
AcDbSymbolTableRecord
100
AcDbBlockTableRecord
2
*MODEL_SPACE
0
BLOCK_RECORD
5
1B
100
AcDbSymbolTableRecord
100
AcDbBlockTableRecord
2
*PAPER_SPACE
0
ENDTAB
0
ENDSEC
0
SECTION
2
BLOCKS
0
BLOCK
5
20
100
AcDbEntity
100
AcDbBlockBegin
2
*MODEL_SPACE
0
ENDBLK
5
21
100
AcDbEntity
100
AcDbBlockEnd
0
BLOCK
5
1C
100
AcDbEntity
100
AcDbBlockBegin
2
*PAPER_SPACE
0
ENDBLK
5
1D
100
AcDbEntity
100
AcDbBlockEnd
0
ENDSEC
0
SECTION
2
ENTITIES
0
LINE
5
100
100
AcDbEntity
8
0
100
AcDbLine
10
-50.538690630321113
20
-78.832677345911179
30
0
11
-158.04070607706464
21
-40.843757031073331
31
0
0
ARC
5
101
100
AcDbEntity
8
0
100
AcDbCircle
10
-46.540447774871012
20
-67.518347756011536
30
0
40
12.000000000001517
210
0
220
0
230
1
100
AcDbArc
50
250.53767779197781
51
259.99999999999943
0
LINE
5
102
100
AcDbEntity
8
0
100
AcDbLine
10
-30.198967603266645
20
-82.584910957608258
30
0
11
-48.624225906874571
21
-79.336040792159508
31
0
0
ARC
5
103
100
AcDbEntity
8
0
100
AcDbCircle
10
-28.115189471263896
20
-70.767217921460372
30
0
40
12.000000000001293
210
0
220
0
230
1
100
AcDbArc
50
260.00000000000313
51
269.99999999999943
0
LINE
5
104
100
AcDbEntity
8
0
100
AcDbLine
10
-28.11518947126401
20
-82.767217921461679
30
0
11
28.115189471264639
21
-82.767217921461679
31
0
0
CIRCLE
5
105
100
AcDbEntity
8
0
100
AcDbCircle
10
-24.982169013760846
20
-78.767217921461679
30
0
40
1.05
210
0
220
-0
230
1
0
CIRCLE
5
106
100
AcDbEntity
8
0
100
AcDbCircle
10
24.982169013760842
20
-78.767217921461679
30
0
40
1.0499999999999994
210
0
220
-0
230
1
0
ARC
5
107
100
AcDbEntity
8
0
100
AcDbCircle
10
28.115189471263893
20
-70.767217921460244
30
0
40
12.000000000001432
210
-0
220
0
230
1
100
AcDbArc
50
270.00000000000358
51
279.99999999999937
0
LINE
5
108
100
AcDbEntity
8
0
100
AcDbLine
10
30.198967603267178
20
-82.584910957608173
30
0
11
48.624225906873725
21
-79.336040792159665
31
0
0
ARC
5
109
100
AcDbEntity
8
0
100
AcDbCircle
10
46.540447774871751
20
-67.518347756014222
30
0
40
11.999999999998757
210
-0
220
0
230
1
100
AcDbArc
50
279.99999999999534
51
289.46232220802585
0
LINE
5
110
100
AcDbEntity
8
0
100
AcDbLine
10
50.538690630321639
20
-78.832677345911009
30
0
11
158.04070607706493
21
-40.84375703107321
31
0
0
CIRCLE
5
111
100
AcDbEntity
8
0
100
AcDbCircle
10
152.75957085177177
20
-38.467589835023986
30
0
40
1.0500000000000067
210
0
220
-0
230
1
0
ARC
5
112
100
AcDbEntity
8
0
100
AcDbCircle
10
154.04246322161436
20
-29.529427441175322
30
0
40
12.000000000000032
210
-0
220
0
230
1
100
AcDbArc
50
-70.537677791972811
51
9.9999999999998668
0
CIRCLE
5
113
100
AcDbEntity
8
0
100
AcDbCircle
10
161.1937444007163
20
-24.01619451404132
30
0
40
1.0499999999999892
210
0
220
-0
230
1
0
LINE
5
114
100
AcDbEntity
8
0
100
AcDbLine
10
165.86015625776088
20
-27.445649309172175
30
0
11
149.90578772894708
21
63.036070871770704
31
0
0
CIRCLE
5
115
100
AcDbEntity
8
0
100
AcDbCircle
10
146.70059291664427
20
58.178552006542034
30
0
40
1.0499999999999967
210
0
220
-0
230
1
0
ARC
5
116
100
AcDbEntity
8
0
100
AcDbCircle
10
138.0880946927123
20
60.952292739821878
30
0
40
12.000000000077502
210
0
220
-0
230
1
100
AcDbArc
50
9.9999999996713136
51
89.999999999953857
0
CIRCLE
5
117
100
AcDbEntity
8
0
100
AcDbCircle
10
133.86094869199457
20
68.95229273989662
30
0
40
1.0499999999999994
210
0
220
-0
230
1
0
ARC
5
118
100
AcDbEntity
8
0
100
AcDbCircle
10
-138.08809469280925
20
60.952292739718828
30
0
40
11.99999999999994
210
0
220
-0
230
1
100
AcDbArc
50
90
51
169.99999999999997
0
CIRCLE
5
119
100
AcDbEntity
8
0
100
AcDbCircle
10
-133.86094869204439
20
68.952292739718672
30
0
40
1.0500000000000032
210
0
220
-0
230
1
0
CIRCLE
5
120
100
AcDbEntity
8
0
100
AcDbCircle
10
-14.000019738289765
20
68.952292739799915
30
0
40
1.0500000000000003
210
0
220
-0
230
1
0
CIRCLE
5
121
100
AcDbEntity
8
0
100
AcDbCircle
10
13.999980261710185
20
68.952292739818233
30
0
40
1.0499999999999996
210
0
220
-0
230
1
0
LINE
5
122
100
AcDbEntity
8
0
100
AcDbLine
10
138.08809469272197
20
72.952292739891092
30
0
11
8.4999802617102027
21
72.952292739889813
31
0
0
ARC
5
123
100
AcDbEntity
8
0
100
AcDbCircle
10
8.4999802617101938
20
70.452292739889813
30
0
40
2.5000000000000089
210
0
220
0
230
1
100
AcDbArc
50
90.000000000000611
51
180
0
ARC
5
124
100
AcDbEntity
8
0
100
AcDbCircle
10
3.499980261710181
20
65.044600168952456
30
0
40
2.5000000000000178
210
0
220
0
230
1
100
AcDbArc
50
270
51
360
0
LINE
5
125
100
AcDbEntity
8
0
100
AcDbLine
10
3.499980261710181
20
62.544600168952442
30
0
11
-3.500019775110395
21
62.544600168952442
31
0
0
ARC
5
126
100
AcDbEntity
8
0
100
AcDbCircle
10
-3.5000197751103954
20
65.044600132131961
30
0
40
2.4999999631793699
210
0
220
0
230
1
100
AcDbArc
50
180
51
270
0
ARC
5
127
100
AcDbEntity
8
0
100
AcDbCircle
10
-8.5000197382897742
20
70.452292739718757
30
0
40
2.5000000000000089
210
0
220
-0
230
1
100
AcDbArc
50
0
51
89.999999999999545
0
LINE
5
128
100
AcDbEntity
8
0
100
AcDbLine
10
-8.5000197382897547
20
72.952292739718771
30
0
11
-138.08809469280925
21
72.952292739718771
31
0
0
CIRCLE
5
129
100
AcDbEntity
8
0
100
AcDbCircle
10
-146.70059291667167
20
58.178552006386624
30
0
40
1.0500000000000043
210
0
220
-0
230
1
0
LINE
5
130
100
AcDbEntity
8
0
100
AcDbLine
10
-165.86015625776085
20
-27.445649309172214
30
0
11
-149.90578772895566
21
63.036070871721996
31
0
0
CIRCLE
5
131
100
AcDbEntity
8
0
100
AcDbCircle
10
-161.1937444007163
20
-24.016194514041441
30
0
40
1.0500000000000052
210
0
220
-0
230
1
0
CIRCLE
5
132
100
AcDbEntity
8
0
100
AcDbCircle
10
-152.75957085177163
20
-38.467589835024029
30
0
40
1.0500000000000065
210
0
220
-0
230
1
0
ARC
5
133
100
AcDbEntity
8
0
100
AcDbCircle
10
-154.04246322161433
20
-29.529427441175343
30
0
40
12.000000000000025
210
0
220
0
230
1
100
AcDbArc
50
170.00000000000023
51
250.5376777919742
0
LINE
5
134
100
AcDbEntity
8
0
100
AcDbLine
10
-137.71811602741695
20
60.027191514753966
30
0
11
-123.93080748524604
21
57.596117027416938
31
0
0
LINE
5
135
100
AcDbEntity
8
0
100
AcDbLine
10
-123.93080748524604
20
57.596117027416938
30
0
11
-126.36188197258306
21
43.808808485246047
31
0
0
LINE
5
136
100
AcDbEntity
8
0
100
AcDbLine
10
-140.14919051475397
20
46.239882972583075
30
0
11
-137.71811602741695
21
60.027191514753966
31
0
0
LINE
5
137
100
AcDbEntity
8
0
100
AcDbLine
10
-141.02611381197195
20
41.266603819871399
30
0
11
-127.23880526980103
21
38.835529332534371
31
0
0
LINE
5
138
100
AcDbEntity
8
0
100
AcDbLine
10
-143.45718829930897
20
27.479295277700508
30
0
11
-141.02611381197195
21
41.266603819871399
31
0
0
LINE
5
139
100
AcDbEntity
8
0
100
AcDbLine
10
-127.23880526980103
20
38.835529332534371
30
0
11
-129.66987975713806
21
25.04822079036348
31
0
0
LINE
5
140
100
AcDbEntity
8
0
100
AcDbLine
10
-129.66987975713806
20
25.04822079036348
30
0
11
-143.45718829930897
21
27.479295277700508
31
0
0
LINE
5
141
100
AcDbEntity
8
0
100
AcDbLine
10
-144.33411159652695
20
22.506016124988832
30
0
11
-130.54680305435602
21
20.074941637651804
31
0
0
LINE
5
142
100
AcDbEntity
8
0
100
AcDbLine
10
-146.76518608386397
20
8.7187075828179417
30
0
11
-144.33411159652695
21
22.506016124988832
31
0
0
LINE
5
143
100
AcDbEntity
8
0
100
AcDbLine
10
-132.97787754169306
20
6.2876330954809134
30
0
11
-146.76518608386397
21
8.7187075828179417
31
0
0
LINE
5
144
100
AcDbEntity
8
0
100
AcDbLine
10
-130.54680305435602
20
20.074941637651804
30
0
11
-132.97787754169306
21
6.2876330954809134
31
0
0
LINE
5
145
100
AcDbEntity
8
0
100
AcDbLine
10
-147.64210938108195
20
3.7454284301062657
30
0
11
-133.85480083891105
21
1.3143539427692374
31
0
0
LINE
5
146
100
AcDbEntity
8
0
100
AcDbLine
10
-150.07318386841897
20
-10.041880112064625
30
0
11
-147.64210938108195
21
3.7454284301062657
31
0
0
LINE
5
147
100
AcDbEntity
8
0
100
AcDbLine
10
-136.28587532624806
20
-12.472954599401653
30
0
11
-150.07318386841897
21
-10.041880112064625
31
0
0
LINE
5
148
100
AcDbEntity
8
0
100
AcDbLine
10
-133.85480083891105
20
1.3143539427692374
30
0
11
-136.28587532624806
21
-12.472954599401653
31
0
0
LINE
5
149
100
AcDbEntity
8
0
100
AcDbLine
10
-150.95010716563695
20
-15.015159264776301
30
0
11
-137.16279862346602
21
-17.446233752113329
31
0
0
LINE
5
150
100
AcDbEntity
8
0
100
AcDbLine
10
-153.38118165297399
20
-28.802467806947192
30
0
11
-150.95010716563695
21
-15.015159264776301
31
0
0
LINE
5
151
100
AcDbEntity
8
0
100
AcDbLine
10
-139.59387311080306
20
-31.23354229428422
30
0
11
-153.38118165297399
21
-28.802467806947192
31
0
0
LINE
5
152
100
AcDbEntity
8
0
100
AcDbLine
10
-137.16279862346602
20
-17.446233752113329
30
0
11
-139.59387311080306
21
-31.23354229428422
31
0
0
LINE
5
153
100
AcDbEntity
8
0
100
AcDbLine
10
-134.62059395809143
20
-32.110465591502205
30
0
11
-132.18951947075439
21
-18.323157049331318
31
0
0
LINE
5
154
100
AcDbEntity
8
0
100
AcDbLine
10
-120.8332854159205
20
-34.541540078839233
30
0
11
-134.62059395809143
21
-32.110465591502205
31
0
0
LINE
5
155
100
AcDbEntity
8
0
100
AcDbLine
10
-118.40221092858346
20
-20.754231536668346
30
0
11
-120.8332854159205
21
-34.541540078839233
31
0
0
LINE
5
156
100
AcDbEntity
8
0
100
AcDbLine
10
-101.24569827489915
20
-33.159390939673585
30
0
11
-115.03300681707009
21
-30.728316452336557
31
0
0
LINE
5
157
100
AcDbEntity
8
0
100
AcDbLine
10
-81.658111133877838
20
-31.777241800507969
30
0
11
-95.445419676048772
21
-29.346167313170941
31
0
0
LINE
5
158
100
AcDbEntity
8
0
100
AcDbLine
10
-63.724522885134036
20
-39.775386508783619
30
0
11
-77.511831427304955
21
-37.344312021446591
31
0
0
LINE
5
159
100
AcDbEntity
8
0
100
AcDbLine
10
-45.790934636390226
20
-47.773531217059272
30
0
11
-59.578243178561152
21
-45.342456729722244
31
0
0
LINE
5
160
100
AcDbEntity
8
0
100
AcDbLine
10
-43.359860149053198
20
-33.986222674888381
30
0
11
-45.790934636390226
21
-47.773531217059272
31
0
0
LINE
5
161
100
AcDbEntity
8
0
100
AcDbLine
10
-59.578243178561152
20
-45.342456729722244
30
0
11
-57.147168691224124
21
-31.55514818755135
31
0
0
LINE
5
162
100
AcDbEntity
8
0
100
AcDbLine
10
-61.293448397797007
20
-25.988077966612728
30
0
11
-63.724522885134036
21
-39.775386508783619
31
0
0
LINE
5
163
100
AcDbEntity
8
0
100
AcDbLine
10
-77.511831427304955
20
-37.344312021446591
30
0
11
-75.080756939967927
21
-23.5570034792757
31
0
0
LINE
5
164
100
AcDbEntity
8
0
100
AcDbLine
10
-79.22703664654081
20
-17.989933258337079
30
0
11
-81.658111133877838
21
-31.777241800507969
31
0
0
LINE
5
165
100
AcDbEntity
8
0
100
AcDbLine
10
-95.445419676048772
20
-29.346167313170941
30
0
11
-93.014345188711744
21
-15.55885877100005
31
0
0
LINE
5
166
100
AcDbEntity
8
0
100
AcDbLine
10
-98.814623787562127
20
-19.372082397502695
30
0
11
-101.24569827489915
21
-33.159390939673585
31
0
0
LINE
5
167
100
AcDbEntity
8
0
100
AcDbLine
10
-115.03300681707009
20
-30.728316452336557
30
0
11
-112.60193232973306
21
-16.941007910165666
31
0
0
LINE
5
168
100
AcDbEntity
8
0
100
AcDbLine
10
-132.18951947075439
20
-18.323157049331318
30
0
11
-118.40221092858346
21
-20.754231536668346
31
0
0
LINE
5
169
100
AcDbEntity
8
0
100
AcDbLine
10
-117.5252876313655
20
-15.78095238395667
30
0
11
-131.31259617353641
21
-13.349877896619642
31
0
0
LINE
5
170
100
AcDbEntity
8
0
100
AcDbLine
10
-131.31259617353641
20
-13.349877896619642
30
0
11
-128.88152168619939
21
0.43743064555124889
31
0
0
LINE
5
171
100
AcDbEntity
8
0
100
AcDbLine
10
-115.09421314402846
20
-1.9936438417857794
30
0
11
-117.5252876313655
21
-15.78095238395667
31
0
0
LINE
5
172
100
AcDbEntity
8
0
100
AcDbLine
10
-128.88152168619939
20
0.43743064555124889
30
0
11
-115.09421314402846
21
-1.9936438417857794
31
0
0
LINE
5
173
100
AcDbEntity
8
0
100
AcDbLine
10
-112.60193232973306
20
-16.941007910165666
30
0
11
-98.814623787562127
21
-19.372082397502695
31
0
0
LINE
5
174
100
AcDbEntity
8
0
100
AcDbLine
10
-93.014345188711744
20
-15.55885877100005
30
0
11
-79.22703664654081
21
-17.989933258337079
31
0
0
LINE
5
175
100
AcDbEntity
8
0
100
AcDbLine
10
-75.080756939967927
20
-23.5570034792757
30
0
11
-61.293448397797007
21
-25.988077966612728
31
0
0
LINE
5
176
100
AcDbEntity
8
0
100
AcDbLine
10
-57.147168691224124
20
-31.55514818755135
30
0
11
-43.359860149053198
21
-33.986222674888381
31
0
0
LINE
5
177
100
AcDbEntity
8
0
100
AcDbLine
10
-38.386580996341564
20
-34.863145972106352
30
0
11
-24.599272454170659
21
-37.29422045944338
31
0
0
LINE
5
178
100
AcDbEntity
8
0
100
AcDbLine
10
-24.599272454170659
20
-37.29422045944338
30
0
11
-27.030346941507688
21
-51.081529001614285
31
0
0
LINE
5
179
100
AcDbEntity
8
0
100
AcDbLine
10
-40.817655483678593
20
-48.650454514277257
30
0
11
-38.386580996341564
21
-34.863145972106352
31
0
0
LINE
5
180
100
AcDbEntity
8
0
100
AcDbLine
10
-27.030346941507688
20
-51.081529001614285
30
0
11
-40.817655483678593
21
-48.650454514277257
31
0
0
LINE
5
181
100
AcDbEntity
8
0
100
AcDbLine
10
-41.694578780896592
20
-53.623733666988912
30
0
11
-27.907270238725683
21
-56.05480815432594
31
0
0
LINE
5
182
100
AcDbEntity
8
0
100
AcDbLine
10
-27.907270238725683
20
-56.05480815432594
30
0
11
-30.338344726062711
21
-69.842116696496873
31
0
0
LINE
5
183
100
AcDbEntity
8
0
100
AcDbLine
10
-30.338344726062711
20
-69.842116696496873
30
0
11
-44.12565326823362
21
-67.411042209159845
31
0
0
LINE
5
184
100
AcDbEntity
8
0
100
AcDbLine
10
-44.12565326823362
20
-67.411042209159845
30
0
11
-41.694578780896592
21
-53.623733666988912
31
0
0
LINE
5
185
100
AcDbEntity
8
0
100
AcDbLine
10
-15.875
20
-56.873608960730806
30
0
11
-15.874999999999995
21
-34.943608960730828
31
0
0
ARC
5
186
100
AcDbEntity
8
0
100
AcDbCircle
10
-10.874999999999988
20
-56.873608960730806
30
0
40
5.0000000000000107
210
0
220
0
230
1
100
AcDbArc
50
180
51
270
0
LINE
5
187
100
AcDbEntity
8
0
100
AcDbLine
10
10.874999999999979
20
-61.87360896073082
30
0
11
-10.874999999999988
21
-61.87360896073082
31
0
0
ARC
5
188
100
AcDbEntity
8
0
100
AcDbCircle
10
10.874999999999979
20
-56.873608960730806
30
0
40
5.0000000000000178
210
-0
220
0
230
1
100
AcDbArc
50
-90
51
0
0
LINE
5
189
100
AcDbEntity
8
0
100
AcDbLine
10
15.875000000000004
20
-34.943608960730842
30
0
11
15.874999999999996
21
-56.873608960730806
31
0
0
ARC
5
190
100
AcDbEntity
8
0
100
AcDbCircle
10
10.874999999999995
20
-34.943608960730842
30
0
40
5.0000000000000089
210
0
220
-0
230
1
100
AcDbArc
50
0
51
90
0
LINE
5
191
100
AcDbEntity
8
0
100
AcDbLine
10
-10.874999999999995
20
-29.943608960730828
30
0
11
10.874999999999995
21
-29.943608960730828
31
0
0
ARC
5
192
100
AcDbEntity
8
0
100
AcDbCircle
10
-10.874999999999995
20
-34.943608960730828
30
0
40
5
210
0
220
-0
230
1
100
AcDbArc
50
90
51
180
0
LINE
5
193
100
AcDbEntity
8
0
100
AcDbLine
10
7.0000000000000018
20
-16.524999999999999
30
0
11
-7.0000000000000018
21
-16.524999999999999
31
0
0
LINE
5
194
100
AcDbEntity
8
0
100
AcDbLine
10
-7.0000000000000018
20
-16.524999999999999
30
0
11
-7.0000000000000018
21
-2.524999999999995
31
0
0
LINE
5
195
100
AcDbEntity
8
0
100
AcDbLine
10
7.0000000000000018
20
-2.524999999999995
30
0
11
7.0000000000000018
21
-16.524999999999999
31
0
0
LINE
5
196
100
AcDbEntity
8
0
100
AcDbLine
10
-7.0000000000000018
20
-2.524999999999995
30
0
11
7.0000000000000018
21
-2.524999999999995
31
0
0
LINE
5
197
100
AcDbEntity
8
0
100
AcDbLine
10
26.050000000000004
20
-7.0000000000000107
30
0
11
12.049999999999999
21
-7.0000000000000107
31
0
0
LINE
5
198
100
AcDbEntity
8
0
100
AcDbLine
10
12.049999999999999
20
-7.0000000000000107
30
0
11
12.049999999999999
21
6.9999999999999929
31
0
0
LINE
5
199
100
AcDbEntity
8
0
100
AcDbLine
10
26.050000000000004
20
6.9999999999999929
30
0
11
26.050000000000004
21
-7.0000000000000107
31
0
0
LINE
5
200
100
AcDbEntity
8
0
100
AcDbLine
10
12.049999999999999
20
6.9999999999999929
30
0
11
26.050000000000004
21
6.9999999999999929
31
0
0
LINE
5
201
100
AcDbEntity
8
0
100
AcDbLine
10
7.0000000000000018
20
16.524999999999999
30
0
11
7.0000000000000018
21
2.524999999999995
31
0
0
LINE
5
202
100
AcDbEntity
8
0
100
AcDbLine
10
7.0000000000000018
20
2.524999999999995
30
0
11
-7.0000000000000018
21
2.524999999999995
31
0
0
LINE
5
203
100
AcDbEntity
8
0
100
AcDbLine
10
-7.0000000000000018
20
2.524999999999995
30
0
11
-7.0000000000000018
21
16.524999999999999
31
0
0
LINE
5
204
100
AcDbEntity
8
0
100
AcDbLine
10
-7.0000000000000018
20
16.524999999999999
30
0
11
7.0000000000000018
21
16.524999999999999
31
0
0
LINE
5
205
100
AcDbEntity
8
0
100
AcDbLine
10
-26.050000000000004
20
6.9999999999999929
30
0
11
-12.049999999999999
21
6.9999999999999929
31
0
0
LINE
5
206
100
AcDbEntity
8
0
100
AcDbLine
10
-12.049999999999999
20
6.9999999999999929
30
0
11
-12.049999999999999
21
-7.0000000000000107
31
0
0
LINE
5
207
100
AcDbEntity
8
0
100
AcDbLine
10
-12.049999999999999
20
-7.0000000000000107
30
0
11
-26.050000000000004
21
-7.0000000000000107
31
0
0
LINE
5
208
100
AcDbEntity
8
0
100
AcDbLine
10
-26.050000000000004
20
-7.0000000000000107
30
0
11
-26.050000000000004
21
6.9999999999999929
31
0
0
LINE
5
209
100
AcDbEntity
8
0
100
AcDbLine
10
7.0041628375020171
20
34.00114636990142
30
0
11
-6.9958371624979847
21
34.00114636990142
31
0
0
LINE
5
210
100
AcDbEntity
8
0
100
AcDbLine
10
-6.9958371624979847
20
34.00114636990142
30
0
11
-6.9958371624979847
21
48.00114636990142
31
0
0
LINE
5
211
100
AcDbEntity
8
0
100
AcDbLine
10
-6.9958371624979847
20
48.00114636990142
30
0
11
7.0041628375020171
21
48.00114636990142
31
0
0
LINE
5
212
100
AcDbEntity
8
0
100
AcDbLine
10
7.0041628375020171
20
48.00114636990142
30
0
11
7.0041628375020171
21
34.00114636990142
31
0
0
LINE
5
213
100
AcDbEntity
8
0
100
AcDbLine
10
-128.00459838898141
20
5.4107097982629249
30
0
11
-125.57352390164439
21
19.198018340433816
31
0
0
LINE
5
214
100
AcDbEntity
8
0
100
AcDbLine
10
-124.69660060442641
20
24.171297493145492
30
0
11
-122.26552611708939
21
37.958606035316379
31
0
0
LINE
5
215
100
AcDbEntity
8
0
100
AcDbLine
10
-121.38860281987141
20
42.931885188028062
30
0
11
-118.95752833253439
21
56.719193730198953
31
0
0
LINE
5
216
100
AcDbEntity
8
0
100
AcDbLine
10
-118.95752833253439
20
56.719193730198953
30
0
11
-105.17021979036346
21
54.288119242861924
31
0
0
LINE
5
217
100
AcDbEntity
8
0
100
AcDbLine
10
-107.6012942777005
20
40.500810700691034
30
0
11
-121.38860281987141
21
42.931885188028062
31
0
0
LINE
5
218
100
AcDbEntity
8
0
100
AcDbLine
10
-122.26552611708939
20
37.958606035316379
30
0
11
-108.47821757491846
21
35.527531547979351
31
0
0
LINE
5
219
100
AcDbEntity
8
0
100
AcDbLine
10
-110.9092920622555
20
21.740223005808463
30
0
11
-124.69660060442641
21
24.171297493145492
31
0
0
LINE
5
220
100
AcDbEntity
8
0
100
AcDbLine
10
-125.57352390164439
20
19.198018340433816
30
0
11
-111.78621535947346
21
16.766943853096787
31
0
0
LINE
5
221
100
AcDbEntity
8
0
100
AcDbLine
10
-114.2172898468105
20
2.9796353109258966
30
0
11
-128.00459838898141
21
5.4107097982629249
31
0
0
LINE
5
222
100
AcDbEntity
8
0
100
AcDbLine
10
-111.78621535947346
20
16.766943853096787
30
0
11
-114.2172898468105
21
2.9796353109258966
31
0
0
LINE
5
223
100
AcDbEntity
8
0
100
AcDbLine
10
-108.47821757491846
20
35.527531547979351
30
0
11
-110.9092920622555
21
21.740223005808463
31
0
0
LINE
5
224
100
AcDbEntity
8
0
100
AcDbLine
10
-105.17021979036346
20
54.288119242861924
30
0
11
-107.6012942777005
21
40.500810700691034
31
0
0
LINE
5
225
100
AcDbEntity
8
0
100
AcDbLine
10
-99.369941191513064
20
58.101342869364601
30
0
11
-85.582632649342131
21
55.670268382027572
31
0
0
LINE
5
226
100
AcDbEntity
8
0
100
AcDbLine
10
-101.80101567885006
20
44.31403432719371
30
0
11
-99.369941191513064
21
58.101342869364601
31
0
0
LINE
5
227
100
AcDbEntity
8
0
100
AcDbLine
10
-85.582632649342131
20
55.670268382027572
30
0
11
-88.013707136679159
21
41.882959839856682
31
0
0
LINE
5
228
100
AcDbEntity
8
0
100
AcDbLine
10
-82.213428537828747
20
45.696183466359329
30
0
11
-79.782354050491747
21
59.48349200853022
31
0
0
LINE
5
229
100
AcDbEntity
8
0
100
AcDbLine
10
-79.782354050491747
20
59.48349200853022
30
0
11
-65.995045508320814
21
57.052417521193192
31
0
0
LINE
5
230
100
AcDbEntity
8
0
100
AcDbLine
10
-65.995045508320814
20
57.052417521193192
30
0
11
-68.426119995657842
21
43.265108979022301
31
0
0
LINE
5
231
100
AcDbEntity
8
0
100
AcDbLine
10
-61.848765801747938
20
51.485347300254567
30
0
11
-48.061457259577011
21
49.054272812917539
31
0
0
LINE
5
232
100
AcDbEntity
8
0
100
AcDbLine
10
-64.279840289084945
20
37.698038758083676
30
0
11
-61.848765801747938
21
51.485347300254567
31
0
0
LINE
5
233
100
AcDbEntity
8
0
100
AcDbLine
10
-48.061457259577011
20
49.054272812917539
30
0
11
-50.49253174691404
21
35.266964270746648
31
0
0
LINE
5
234
100
AcDbEntity
8
0
100
AcDbLine
10
-43.915177553004128
20
43.487202591978914
30
0
11
-30.127869010833201
21
41.056128104641886
31
0
0
LINE
5
235
100
AcDbEntity
8
0
100
AcDbLine
10
-46.346252040341142
20
29.699894049808027
30
0
11
-43.915177553004128
21
43.487202591978914
31
0
0
LINE
5
236
100
AcDbEntity
8
0
100
AcDbLine
10
-30.127869010833201
20
41.056128104641886
30
0
11
-32.55894349817023
21
27.268819562470998
31
0
0
LINE
5
237
100
AcDbEntity
8
0
100
AcDbLine
10
-32.55894349817023
20
27.268819562470998
30
0
11
-46.346252040341142
21
29.699894049808027
31
0
0
LINE
5
238
100
AcDbEntity
8
0
100
AcDbLine
10
-47.223175337559127
20
24.726614897096351
30
0
11
-33.435866795388201
21
22.295540409759322
31
0
0
LINE
5
239
100
AcDbEntity
8
0
100
AcDbLine
10
-33.435866795388201
20
22.295540409759322
30
0
11
-35.866941282725229
21
8.5082318675884316
31
0
0
LINE
5
240
100
AcDbEntity
8
0
100
AcDbLine
10
-35.866941282725229
20
8.5082318675884316
30
0
11
-49.654249824896141
21
10.93930635492546
31
0
0
LINE
5
241
100
AcDbEntity
8
0
100
AcDbLine
10
-50.531173122114126
20
5.9660272022137839
30
0
11
-36.7438645799432
21
3.5349527148767557
31
0
0
LINE
5
242
100
AcDbEntity
8
0
100
AcDbLine
10
-36.7438645799432
20
3.5349527148767557
30
0
11
-39.174939067280228
21
-10.252355827294135
31
0
0
LINE
5
243
100
AcDbEntity
8
0
100
AcDbLine
10
-39.174939067280228
20
-10.252355827294135
30
0
11
-52.96224760945114
21
-7.8212813399571068
31
0
0
LINE
5
244
100
AcDbEntity
8
0
100
AcDbLine
10
-53.839170906669125
20
-12.794560492668783
30
0
11
-40.051862364498199
21
-15.225634980005811
31
0
0
LINE
5
245
100
AcDbEntity
8
0
100
AcDbLine
10
-40.051862364498199
20
-15.225634980005811
30
0
11
-42.482936851835227
21
-29.012943522176702
31
0
0
LINE
5
246
100
AcDbEntity
8
0
100
AcDbLine
10
-42.482936851835227
20
-29.012943522176702
30
0
11
-56.270245394006139
21
-26.581869034839674
31
0
0
LINE
5
247
100
AcDbEntity
8
0
100
AcDbLine
10
-56.270245394006139
20
-26.581869034839674
30
0
11
-53.839170906669125
21
-12.794560492668783
31
0
0
LINE
5
248
100
AcDbEntity
8
0
100
AcDbLine
10
-52.96224760945114
20
-7.8212813399571068
30
0
11
-50.531173122114126
21
5.9660272022137839
31
0
0
LINE
5
249
100
AcDbEntity
8
0
100
AcDbLine
10
-49.654249824896141
20
10.93930635492546
30
0
11
-47.223175337559127
21
24.726614897096351
31
0
0
LINE
5
250
100
AcDbEntity
8
0
100
AcDbLine
10
-50.49253174691404
20
35.266964270746648
30
0
11
-64.279840289084945
21
37.698038758083676
31
0
0
LINE
5
251
100
AcDbEntity
8
0
100
AcDbLine
10
-105.10901346340506
20
25.553446632311143
30
0
11
-102.67793897606806
21
39.340755174482034
31
0
0
LINE
5
252
100
AcDbEntity
8
0
100
AcDbLine
10
-108.41701124796006
20
6.7928589374285764
30
0
11
-105.98593676062306
21
20.580167479599467
31
0
0
LINE
5
253
100
AcDbEntity
8
0
100
AcDbLine
10
-111.72500903251506
20
-11.96772875745399
30
0
11
-109.29393454517806
21
1.8195797847169004
31
0
0
LINE
5
254
100
AcDbEntity
8
0
100
AcDbLine
10
-97.937700490344156
20
-14.398803244791019
30
0
11
-111.72500903251506
21
-11.96772875745399
31
0
0
LINE
5
255
100
AcDbEntity
8
0
100
AcDbLine
10
-95.506626003007128
20
-0.61149470262012784
30
0
11
-97.937700490344156
21
-14.398803244791019
31
0
0
LINE
5
256
100
AcDbEntity
8
0
100
AcDbLine
10
-109.29393454517806
20
1.8195797847169004
30
0
11
-95.506626003007128
21
-0.61149470262012784
31
0
0
LINE
5
257
100
AcDbEntity
8
0
100
AcDbLine
10
-92.198628218452129
20
18.149092992262439
30
0
11
-94.629702705789157
21
4.3617844500915481
31
0
0
LINE
5
258
100
AcDbEntity
8
0
100
AcDbLine
10
-94.629702705789157
20
4.3617844500915481
30
0
11
-108.41701124796006
21
6.7928589374285764
31
0
0
LINE
5
259
100
AcDbEntity
8
0
100
AcDbLine
10
-105.98593676062306
20
20.580167479599467
30
0
11
-92.198628218452129
21
18.149092992262439
31
0
0
LINE
5
260
100
AcDbEntity
8
0
100
AcDbLine
10
-91.321704921234158
20
23.122372144974115
30
0
11
-105.10901346340506
21
25.553446632311143
31
0
0
LINE
5
261
100
AcDbEntity
8
0
100
AcDbLine
10
-88.89063043389713
20
36.909680687145006
30
0
11
-91.321704921234158
21
23.122372144974115
31
0
0
LINE
5
262
100
AcDbEntity
8
0
100
AcDbLine
10
-102.67793897606806
20
39.340755174482034
30
0
11
-88.89063043389713
21
36.909680687145006
31
0
0
LINE
5
263
100
AcDbEntity
8
0
100
AcDbLine
10
-88.013707136679159
20
41.882959839856682
30
0
11
-101.80101567885006
21
44.31403432719371
31
0
0
LINE
5
264
100
AcDbEntity
8
0
100
AcDbLine
10
-78.350113349322839
20
-13.016654105625403
30
0
11
-92.137421891493744
21
-10.585579618288374
31
0
0
LINE
5
265
100
AcDbEntity
8
0
100
AcDbLine
10
-60.416525100579037
20
-21.014798813901052
30
0
11
-74.203833642749942
21
-18.583724326564024
31
0
0
LINE
5
266
100
AcDbEntity
8
0
100
AcDbLine
10
-57.985450613242008
20
-7.2274902717301615
30
0
11
-60.416525100579037
21
-21.014798813901052
31
0
0
LINE
5
267
100
AcDbEntity
8
0
100
AcDbLine
10
-57.108527316024038
20
-2.2542111190184855
30
0
11
-70.895835858194943
21
0.17686336831854277
31
0
0
LINE
5
268
100
AcDbEntity
8
0
100
AcDbLine
10
-54.677452828687009
20
11.533097423152405
30
0
11
-57.108527316024038
21
-2.2542111190184855
31
0
0
LINE
5
269
100
AcDbEntity
8
0
100
AcDbLine
10
-53.800529531469039
20
16.506376575864081
30
0
11
-67.587838073639944
21
18.937451063201109
31
0
0
LINE
5
270
100
AcDbEntity
8
0
100
AcDbLine
10
-51.36945504413201
20
30.293685118034972
30
0
11
-53.800529531469039
21
16.506376575864081
31
0
0
LINE
5
271
100
AcDbEntity
8
0
100
AcDbLine
10
-65.15676358630293
20
32.724759605372
30
0
11
-51.36945504413201
21
30.293685118034972
31
0
0
LINE
5
272
100
AcDbEntity
8
0
100
AcDbLine
10
-67.587838073639944
20
18.937451063201109
30
0
11
-65.15676358630293
21
32.724759605372
31
0
0
LINE
5
273
100
AcDbEntity
8
0
100
AcDbLine
10
-70.895835858194943
20
0.17686336831854277
30
0
11
-68.464761370857929
21
13.964171910489434
31
0
0
LINE
5
274
100
AcDbEntity
8
0
100
AcDbLine
10
-68.464761370857929
20
13.964171910489434
30
0
11
-54.677452828687009
21
11.533097423152405
31
0
0
LINE
5
275
100
AcDbEntity
8
0
100
AcDbLine
10
-74.203833642749942
20
-18.583724326564024
30
0
11
-71.772759155412928
21
-4.7964157843931332
31
0
0
LINE
5
276
100
AcDbEntity
8
0
100
AcDbLine
10
-71.772759155412928
20
-4.7964157843931332
30
0
11
-57.985450613242008
21
-7.2274902717301615
31
0
0
LINE
5
277
100
AcDbEntity
8
0
100
AcDbLine
10
-75.919038861985811
20
0.77065443654548815
30
0
11
-78.350113349322839
21
-13.016654105625403
31
0
0
LINE
5
278
100
AcDbEntity
8
0
100
AcDbLine
10
-92.137421891493744
20
-10.585579618288374
30
0
11
-89.706347404156745
21
3.2017289238825164
31
0
0
LINE
5
279
100
AcDbEntity
8
0
100
AcDbLine
10
-89.706347404156745
20
3.2017289238825164
30
0
11
-75.919038861985811
21
0.77065443654548815
31
0
0
LINE
5
280
100
AcDbEntity
8
0
100
AcDbLine
10
-75.04211556476784
20
5.7439335892571641
30
0
11
-88.829424106938745
21
8.1750080765941924
31
0
0
LINE
5
281
100
AcDbEntity
8
0
100
AcDbLine
10
-88.829424106938745
20
8.1750080765941924
30
0
11
-86.398349619601746
21
21.962316618765083
31
0
0
LINE
5
282
100
AcDbEntity
8
0
100
AcDbLine
10
-72.611041077430812
20
19.531242131428055
30
0
11
-75.04211556476784
21
5.7439335892571641
31
0
0
LINE
5
283
100
AcDbEntity
8
0
100
AcDbLine
10
-86.398349619601746
20
21.962316618765083
30
0
11
-72.611041077430812
21
19.531242131428055
31
0
0
LINE
5
284
100
AcDbEntity
8
0
100
AcDbLine
10
-71.734117780212841
20
24.504521284139731
30
0
11
-85.521426322383746
21
26.935595771476759
31
0
0
LINE
5
285
100
AcDbEntity
8
0
100
AcDbLine
10
-69.303043292875813
20
38.291829826310618
30
0
11
-71.734117780212841
21
24.504521284139731
31
0
0
LINE
5
286
100
AcDbEntity
8
0
100
AcDbLine
10
-85.521426322383746
20
26.935595771476759
30
0
11
-83.090351835046746
21
40.722904313647646
31
0
0
LINE
5
287
100
AcDbEntity
8
0
100
AcDbLine
10
-83.090351835046746
20
40.722904313647646
30
0
11
-69.303043292875813
21
38.291829826310618
31
0
0
LINE
5
288
100
AcDbEntity
8
0
100
AcDbLine
10
-68.426119995657842
20
43.265108979022301
30
0
11
-82.213428537828747
21
45.696183466359329
31
0
0
LINE
5
289
100
AcDbEntity
8
0
100
AcDbLine
10
30.127869010833201
20
41.056128104641886
30
0
11
32.55894349817023
21
27.268819562470998
31
0
0
LINE
5
290
100
AcDbEntity
8
0
100
AcDbLine
10
33.435866795388201
20
22.295540409759322
30
0
11
35.866941282725229
21
8.5082318675884316
31
0
0
LINE
5
291
100
AcDbEntity
8
0
100
AcDbLine
10
36.7438645799432
20
3.5349527148767557
30
0
11
39.174939067280228
21
-10.252355827294135
31
0
0
LINE
5
292
100
AcDbEntity
8
0
100
AcDbLine
10
40.051862364498199
20
-15.225634980005811
30
0
11
42.482936851835227
21
-29.012943522176702
31
0
0
LINE
5
293
100
AcDbEntity
8
0
100
AcDbLine
10
43.359860149053198
20
-33.986222674888381
30
0
11
45.790934636390226
21
-47.773531217059272
31
0
0
LINE
5
294
100
AcDbEntity
8
0
100
AcDbLine
10
38.386580996341557
20
-34.863145972106359
30
0
11
40.817655483678578
21
-48.650454514277271
31
0
0
LINE
5
295
100
AcDbEntity
8
0
100
AcDbLine
10
27.030346941507666
20
-51.081529001614285
30
0
11
24.599272454170645
21
-37.294220459443387
31
0
0
LINE
5
296
100
AcDbEntity
8
0
100
AcDbLine
10
24.599272454170645
20
-37.294220459443387
30
0
11
38.386580996341557
21
-34.863145972106359
31
0
0
LINE
5
297
100
AcDbEntity
8
0
100
AcDbLine
10
40.817655483678578
20
-48.650454514277271
30
0
11
27.030346941507666
21
-51.081529001614285
31
0
0
LINE
5
298
100
AcDbEntity
8
0
100
AcDbLine
10
27.907270238725665
20
-56.05480815432594
30
0
11
41.694578780896578
21
-53.623733666988933
31
0
0
LINE
5
299
100
AcDbEntity
8
0
100
AcDbLine
10
30.338344726062694
20
-69.842116696496873
30
0
11
27.907270238725665
21
-56.05480815432594
31
0
0
LINE
5
300
100
AcDbEntity
8
0
100
AcDbLine
10
44.125653268233606
20
-67.411042209159859
30
0
11
30.338344726062694
21
-69.842116696496873
31
0
0
LINE
5
301
100
AcDbEntity
8
0
100
AcDbLine
10
41.694578780896578
20
-53.623733666988933
30
0
11
44.125653268233606
21
-67.411042209159859
31
0
0
LINE
5
302
100
AcDbEntity
8
0
100
AcDbLine
10
45.790934636390226
20
-47.773531217059272
30
0
11
59.578243178561152
21
-45.342456729722244
31
0
0
LINE
5
303
100
AcDbEntity
8
0
100
AcDbLine
10
59.578243178561152
20
-45.342456729722244
30
0
11
57.147168691224124
21
-31.55514818755135
31
0
0
LINE
5
304
100
AcDbEntity
8
0
100
AcDbLine
10
57.147168691224124
20
-31.55514818755135
30
0
11
43.359860149053198
21
-33.986222674888381
31
0
0
LINE
5
305
100
AcDbEntity
8
0
100
AcDbLine
10
42.482936851835227
20
-29.012943522176702
30
0
11
56.270245394006139
21
-26.581869034839674
31
0
0
LINE
5
306
100
AcDbEntity
8
0
100
AcDbLine
10
56.270245394006139
20
-26.581869034839674
30
0
11
53.839170906669125
21
-12.794560492668783
31
0
0
LINE
5
307
100
AcDbEntity
8
0
100
AcDbLine
10
53.839170906669125
20
-12.794560492668783
30
0
11
40.051862364498199
21
-15.225634980005811
31
0
0
LINE
5
308
100
AcDbEntity
8
0
100
AcDbLine
10
39.174939067280228
20
-10.252355827294135
30
0
11
52.96224760945114
21
-7.8212813399571068
31
0
0
LINE
5
309
100
AcDbEntity
8
0
100
AcDbLine
10
52.96224760945114
20
-7.8212813399571068
30
0
11
50.531173122114126
21
5.9660272022137839
31
0
0
LINE
5
310
100
AcDbEntity
8
0
100
AcDbLine
10
50.531173122114126
20
5.9660272022137839
30
0
11
36.7438645799432
21
3.5349527148767557
31
0
0
LINE
5
311
100
AcDbEntity
8
0
100
AcDbLine
10
35.866941282725229
20
8.5082318675884316
30
0
11
49.654249824896141
21
10.93930635492546
31
0
0
LINE
5
312
100
AcDbEntity
8
0
100
AcDbLine
10
49.654249824896141
20
10.93930635492546
30
0
11
47.223175337559127
21
24.726614897096351
31
0
0
LINE
5
313
100
AcDbEntity
8
0
100
AcDbLine
10
47.223175337559127
20
24.726614897096351
30
0
11
33.435866795388201
21
22.295540409759322
31
0
0
LINE
5
314
100
AcDbEntity
8
0
100
AcDbLine
10
32.55894349817023
20
27.268819562470998
30
0
11
46.346252040341142
21
29.699894049808027
31
0
0
LINE
5
315
100
AcDbEntity
8
0
100
AcDbLine
10
46.346252040341142
20
29.699894049808027
30
0
11
43.915177553004128
21
43.487202591978914
31
0
0
LINE
5
316
100
AcDbEntity
8
0
100
AcDbLine
10
43.915177553004128
20
43.487202591978914
30
0
11
30.127869010833201
21
41.056128104641886
31
0
0
LINE
5
317
100
AcDbEntity
8
0
100
AcDbLine
10
48.061457259577011
20
49.054272812917539
30
0
11
50.49253174691404
21
35.266964270746648
31
0
0
LINE
5
318
100
AcDbEntity
8
0
100
AcDbLine
10
61.848765801747938
20
51.485347300254567
30
0
11
48.061457259577011
21
49.054272812917539
31
0
0
LINE
5
319
100
AcDbEntity
8
0
100
AcDbLine
10
64.279840289084945
20
37.698038758083676
30
0
11
61.848765801747938
21
51.485347300254567
31
0
0
LINE
5
320
100
AcDbEntity
8
0
100
AcDbLine
10
50.49253174691404
20
35.266964270746648
30
0
11
64.279840289084945
21
37.698038758083676
31
0
0
LINE
5
321
100
AcDbEntity
8
0
100
AcDbLine
10
51.36945504413201
20
30.293685118034972
30
0
11
53.800529531469039
21
16.506376575864081
31
0
0
LINE
5
322
100
AcDbEntity
8
0
100
AcDbLine
10
65.15676358630293
20
32.724759605372
30
0
11
51.36945504413201
21
30.293685118034972
31
0
0
LINE
5
323
100
AcDbEntity
8
0
100
AcDbLine
10
67.587838073639944
20
18.937451063201109
30
0
11
65.15676358630293
21
32.724759605372
31
0
0
LINE
5
324
100
AcDbEntity
8
0
100
AcDbLine
10
53.800529531469039
20
16.506376575864081
30
0
11
67.587838073639944
21
18.937451063201109
31
0
0
LINE
5
325
100
AcDbEntity
8
0
100
AcDbLine
10
68.464761370857929
20
13.964171910489434
30
0
11
54.677452828687009
21
11.533097423152405
31
0
0
LINE
5
326
100
AcDbEntity
8
0
100
AcDbLine
10
54.677452828687009
20
11.533097423152405
30
0
11
57.108527316024038
21
-2.2542111190184855
31
0
0
LINE
5
327
100
AcDbEntity
8
0
100
AcDbLine
10
70.895835858194943
20
0.17686336831854277
30
0
11
68.464761370857929
21
13.964171910489434
31
0
0
LINE
5
328
100
AcDbEntity
8
0
100
AcDbLine
10
57.108527316024038
20
-2.2542111190184855
30
0
11
70.895835858194943
21
0.17686336831854277
31
0
0
LINE
5
329
100
AcDbEntity
8
0
100
AcDbLine
10
57.985450613242008
20
-7.2274902717301615
30
0
11
60.416525100579037
21
-21.014798813901052
31
0
0
LINE
5
330
100
AcDbEntity
8
0
100
AcDbLine
10
71.772759155412928
20
-4.7964157843931332
30
0
11
57.985450613242008
21
-7.2274902717301615
31
0
0
LINE
5
331
100
AcDbEntity
8
0
100
AcDbLine
10
60.416525100579037
20
-21.014798813901052
30
0
11
74.203833642749942
21
-18.583724326564024
31
0
0
LINE
5
332
100
AcDbEntity
8
0
100
AcDbLine
10
74.203833642749942
20
-18.583724326564024
30
0
11
71.772759155412928
21
-4.7964157843931332
31
0
0
LINE
5
333
100
AcDbEntity
8
0
100
AcDbLine
10
75.080756939967927
20
-23.5570034792757
30
0
11
61.293448397797007
21
-25.988077966612728
31
0
0
LINE
5
334
100
AcDbEntity
8
0
100
AcDbLine
10
61.293448397797007
20
-25.988077966612728
30
0
11
63.724522885134036
21
-39.775386508783619
31
0
0
LINE
5
335
100
AcDbEntity
8
0
100
AcDbLine
10
63.724522885134036
20
-39.775386508783619
30
0
11
77.511831427304955
21
-37.344312021446591
31
0
0
LINE
5
336
100
AcDbEntity
8
0
100
AcDbLine
10
77.511831427304955
20
-37.344312021446591
30
0
11
75.080756939967927
21
-23.5570034792757
31
0
0
LINE
5
337
100
AcDbEntity
8
0
100
AcDbLine
10
81.658111133877838
20
-31.777241800507969
30
0
11
95.445419676048772
21
-29.346167313170941
31
0
0
LINE
5
338
100
AcDbEntity
8
0
100
AcDbLine
10
79.22703664654081
20
-17.989933258337079
30
0
11
81.658111133877838
21
-31.777241800507969
31
0
0
LINE
5
339
100
AcDbEntity
8
0
100
AcDbLine
10
95.445419676048772
20
-29.346167313170941
30
0
11
93.014345188711744
21
-15.55885877100005
31
0
0
LINE
5
340
100
AcDbEntity
8
0
100
AcDbLine
10
93.014345188711744
20
-15.55885877100005
30
0
11
79.22703664654081
21
-17.989933258337079
31
0
0
LINE
5
341
100
AcDbEntity
8
0
100
AcDbLine
10
92.137421891493744
20
-10.585579618288374
30
0
11
89.706347404156745
21
3.2017289238825164
31
0
0
LINE
5
342
100
AcDbEntity
8
0
100
AcDbLine
10
78.350113349322839
20
-13.016654105625403
30
0
11
92.137421891493744
21
-10.585579618288374
31
0
0
LINE
5
343
100
AcDbEntity
8
0
100
AcDbLine
10
75.919038861985811
20
0.77065443654548815
30
0
11
78.350113349322839
21
-13.016654105625403
31
0
0
LINE
5
344
100
AcDbEntity
8
0
100
AcDbLine
10
89.706347404156745
20
3.2017289238825164
30
0
11
75.919038861985811
21
0.77065443654548815
31
0
0
LINE
5
345
100
AcDbEntity
8
0
100
AcDbLine
10
88.829424106938745
20
8.1750080765941924
30
0
11
86.398349619601746
21
21.962316618765083
31
0
0
LINE
5
346
100
AcDbEntity
8
0
100
AcDbLine
10
75.04211556476784
20
5.7439335892571641
30
0
11
88.829424106938745
21
8.1750080765941924
31
0
0
LINE
5
347
100
AcDbEntity
8
0
100
AcDbLine
10
72.611041077430812
20
19.531242131428055
30
0
11
75.04211556476784
21
5.7439335892571641
31
0
0
LINE
5
348
100
AcDbEntity
8
0
100
AcDbLine
10
86.398349619601746
20
21.962316618765083
30
0
11
72.611041077430812
21
19.531242131428055
31
0
0
LINE
5
349
100
AcDbEntity
8
0
100
AcDbLine
10
85.521426322383746
20
26.935595771476759
30
0
11
83.090351835046746
21
40.722904313647646
31
0
0
LINE
5
350
100
AcDbEntity
8
0
100
AcDbLine
10
71.734117780212841
20
24.504521284139731
30
0
11
85.521426322383746
21
26.935595771476759
31
0
0
LINE
5
351
100
AcDbEntity
8
0
100
AcDbLine
10
69.303043292875813
20
38.291829826310618
30
0
11
71.734117780212841
21
24.504521284139731
31
0
0
LINE
5
352
100
AcDbEntity
8
0
100
AcDbLine
10
83.090351835046746
20
40.722904313647646
30
0
11
69.303043292875813
21
38.291829826310618
31
0
0
LINE
5
353
100
AcDbEntity
8
0
100
AcDbLine
10
82.213428537828747
20
45.696183466359329
30
0
11
79.782354050491747
21
59.48349200853022
31
0
0
LINE
5
354
100
AcDbEntity
8
0
100
AcDbLine
10
68.426119995657842
20
43.265108979022301
30
0
11
82.213428537828747
21
45.696183466359329
31
0
0
LINE
5
355
100
AcDbEntity
8
0
100
AcDbLine
10
65.995045508320814
20
57.052417521193192
30
0
11
68.426119995657842
21
43.265108979022301
31
0
0
LINE
5
356
100
AcDbEntity
8
0
100
AcDbLine
10
79.782354050491747
20
59.48349200853022
30
0
11
65.995045508320814
21
57.052417521193192
31
0
0
LINE
5
357
100
AcDbEntity
8
0
100
AcDbLine
10
99.369941191513064
20
58.101342869364601
30
0
11
85.582632649342131
21
55.670268382027572
31
0
0
LINE
5
358
100
AcDbEntity
8
0
100
AcDbLine
10
85.582632649342131
20
55.670268382027572
30
0
11
88.013707136679159
21
41.882959839856682
31
0
0
LINE
5
359
100
AcDbEntity
8
0
100
AcDbLine
10
88.013707136679159
20
41.882959839856682
30
0
11
101.80101567885006
21
44.31403432719371
31
0
0
LINE
5
360
100
AcDbEntity
8
0
100
AcDbLine
10
102.67793897606806
20
39.340755174482034
30
0
11
88.89063043389713
21
36.909680687145006
31
0
0
LINE
5
361
100
AcDbEntity
8
0
100
AcDbLine
10
88.89063043389713
20
36.909680687145006
30
0
11
91.321704921234158
21
23.122372144974115
31
0
0
LINE
5
362
100
AcDbEntity
8
0
100
AcDbLine
10
91.321704921234158
20
23.122372144974115
30
0
11
105.10901346340506
21
25.553446632311143
31
0
0
LINE
5
363
100
AcDbEntity
8
0
100
AcDbLine
10
105.98593676062306
20
20.580167479599467
30
0
11
92.198628218452129
21
18.149092992262439
31
0
0
LINE
5
364
100
AcDbEntity
8
0
100
AcDbLine
10
92.198628218452129
20
18.149092992262439
30
0
11
94.629702705789157
21
4.3617844500915481
31
0
0
LINE
5
365
100
AcDbEntity
8
0
100
AcDbLine
10
94.629702705789157
20
4.3617844500915481
30
0
11
108.41701124796006
21
6.7928589374285764
31
0
0
LINE
5
366
100
AcDbEntity
8
0
100
AcDbLine
10
109.29393454517806
20
1.8195797847169004
30
0
11
95.506626003007128
21
-0.61149470262012784
31
0
0
LINE
5
367
100
AcDbEntity
8
0
100
AcDbLine
10
95.506626003007128
20
-0.61149470262012784
30
0
11
97.937700490344156
21
-14.398803244791019
31
0
0
LINE
5
368
100
AcDbEntity
8
0
100
AcDbLine
10
97.937700490344156
20
-14.398803244791019
30
0
11
111.72500903251506
21
-11.96772875745399
31
0
0
LINE
5
369
100
AcDbEntity
8
0
100
AcDbLine
10
112.60193232973306
20
-16.941007910165666
30
0
11
98.814623787562127
21
-19.372082397502695
31
0
0
LINE
5
370
100
AcDbEntity
8
0
100
AcDbLine
10
98.814623787562127
20
-19.372082397502695
30
0
11
101.24569827489915
21
-33.159390939673585
31
0
0
LINE
5
371
100
AcDbEntity
8
0
100
AcDbLine
10
101.24569827489915
20
-33.159390939673585
30
0
11
115.03300681707009
21
-30.728316452336557
31
0
0
LINE
5
372
100
AcDbEntity
8
0
100
AcDbLine
10
115.03300681707009
20
-30.728316452336557
30
0
11
112.60193232973306
21
-16.941007910165666
31
0
0
LINE
5
373
100
AcDbEntity
8
0
100
AcDbLine
10
111.72500903251506
20
-11.96772875745399
30
0
11
109.29393454517806
21
1.8195797847169004
31
0
0
LINE
5
374
100
AcDbEntity
8
0
100
AcDbLine
10
108.41701124796006
20
6.7928589374285764
30
0
11
105.98593676062306
21
20.580167479599467
31
0
0
LINE
5
375
100
AcDbEntity
8
0
100
AcDbLine
10
105.10901346340506
20
25.553446632311143
30
0
11
102.67793897606806
21
39.340755174482034
31
0
0
LINE
5
376
100
AcDbEntity
8
0
100
AcDbLine
10
101.80101567885006
20
44.31403432719371
30
0
11
99.369941191513064
21
58.101342869364601
31
0
0
LINE
5
377
100
AcDbEntity
8
0
100
AcDbLine
10
118.95752833253439
20
56.719193730198953
30
0
11
105.17021979036346
21
54.288119242861924
31
0
0
LINE
5
378
100
AcDbEntity
8
0
100
AcDbLine
10
105.17021979036346
20
54.288119242861924
30
0
11
107.6012942777005
21
40.500810700691034
31
0
0
LINE
5
379
100
AcDbEntity
8
0
100
AcDbLine
10
107.6012942777005
20
40.500810700691034
30
0
11
121.38860281987141
21
42.931885188028062
31
0
0
LINE
5
380
100
AcDbEntity
8
0
100
AcDbLine
10
122.26552611708939
20
37.958606035316379
30
0
11
108.47821757491846
21
35.527531547979351
31
0
0
LINE
5
381
100
AcDbEntity
8
0
100
AcDbLine
10
108.47821757491846
20
35.527531547979351
30
0
11
110.9092920622555
21
21.740223005808463
31
0
0
LINE
5
382
100
AcDbEntity
8
0
100
AcDbLine
10
110.9092920622555
20
21.740223005808463
30
0
11
124.69660060442641
21
24.171297493145492
31
0
0
LINE
5
383
100
AcDbEntity
8
0
100
AcDbLine
10
125.57352390164439
20
19.198018340433816
30
0
11
111.78621535947346
21
16.766943853096787
31
0
0
LINE
5
384
100
AcDbEntity
8
0
100
AcDbLine
10
111.78621535947346
20
16.766943853096787
30
0
11
114.2172898468105
21
2.9796353109258966
31
0
0
LINE
5
385
100
AcDbEntity
8
0
100
AcDbLine
10
114.2172898468105
20
2.9796353109258966
30
0
11
128.00459838898141
21
5.4107097982629249
31
0
0
LINE
5
386
100
AcDbEntity
8
0
100
AcDbLine
10
128.88152168619939
20
0.43743064555124889
30
0
11
115.09421314402846
21
-1.9936438417857794
31
0
0
LINE
5
387
100
AcDbEntity
8
0
100
AcDbLine
10
115.09421314402846
20
-1.9936438417857794
30
0
11
117.5252876313655
21
-15.78095238395667
31
0
0
LINE
5
388
100
AcDbEntity
8
0
100
AcDbLine
10
117.5252876313655
20
-15.78095238395667
30
0
11
131.31259617353641
21
-13.349877896619642
31
0
0
LINE
5
389
100
AcDbEntity
8
0
100
AcDbLine
10
132.18951947075439
20
-18.323157049331318
30
0
11
118.40221092858346
21
-20.754231536668346
31
0
0
LINE
5
390
100
AcDbEntity
8
0
100
AcDbLine
10
118.40221092858346
20
-20.754231536668346
30
0
11
120.8332854159205
21
-34.541540078839233
31
0
0
LINE
5
391
100
AcDbEntity
8
0
100
AcDbLine
10
120.8332854159205
20
-34.541540078839233
30
0
11
134.62059395809143
21
-32.110465591502205
31
0
0
LINE
5
392
100
AcDbEntity
8
0
100
AcDbLine
10
134.62059395809143
20
-32.110465591502205
30
0
11
132.18951947075439
21
-18.323157049331318
31
0
0
LINE
5
393
100
AcDbEntity
8
0
100
AcDbLine
10
139.59387311080306
20
-31.23354229428422
30
0
11
153.38118165297399
21
-28.802467806947192
31
0
0
LINE
5
394
100
AcDbEntity
8
0
100
AcDbLine
10
137.16279862346602
20
-17.446233752113329
30
0
11
139.59387311080306
21
-31.23354229428422
31
0
0
LINE
5
395
100
AcDbEntity
8
0
100
AcDbLine
10
153.38118165297399
20
-28.802467806947192
30
0
11
150.95010716563695
21
-15.015159264776301
31
0
0
LINE
5
396
100
AcDbEntity
8
0
100
AcDbLine
10
150.95010716563695
20
-15.015159264776301
30
0
11
137.16279862346602
21
-17.446233752113329
31
0
0
LINE
5
397
100
AcDbEntity
8
0
100
AcDbLine
10
136.28587532624806
20
-12.472954599401653
30
0
11
150.07318386841897
21
-10.041880112064625
31
0
0
LINE
5
398
100
AcDbEntity
8
0
100
AcDbLine
10
150.07318386841897
20
-10.041880112064625
30
0
11
147.64210938108195
21
3.7454284301062657
31
0
0
LINE
5
399
100
AcDbEntity
8
0
100
AcDbLine
10
147.64210938108195
20
3.7454284301062657
30
0
11
133.85480083891105
21
1.3143539427692374
31
0
0
LINE
5
400
100
AcDbEntity
8
0
100
AcDbLine
10
133.85480083891105
20
1.3143539427692374
30
0
11
136.28587532624806
21
-12.472954599401653
31
0
0
LINE
5
401
100
AcDbEntity
8
0
100
AcDbLine
10
131.31259617353641
20
-13.349877896619642
30
0
11
128.88152168619939
21
0.43743064555124889
31
0
0
LINE
5
402
100
AcDbEntity
8
0
100
AcDbLine
10
128.00459838898141
20
5.4107097982629249
30
0
11
125.57352390164439
21
19.198018340433816
31
0
0
LINE
5
403
100
AcDbEntity
8
0
100
AcDbLine
10
130.54680305435602
20
20.074941637651804
30
0
11
132.97787754169306
21
6.2876330954809134
31
0
0
LINE
5
404
100
AcDbEntity
8
0
100
AcDbLine
10
132.97787754169306
20
6.2876330954809134
30
0
11
146.76518608386397
21
8.7187075828179417
31
0
0
LINE
5
405
100
AcDbEntity
8
0
100
AcDbLine
10
146.76518608386397
20
8.7187075828179417
30
0
11
144.33411159652695
21
22.506016124988832
31
0
0
LINE
5
406
100
AcDbEntity
8
0
100
AcDbLine
10
144.33411159652695
20
22.506016124988832
30
0
11
130.54680305435602
21
20.074941637651804
31
0
0
LINE
5
407
100
AcDbEntity
8
0
100
AcDbLine
10
129.66987975713806
20
25.04822079036348
30
0
11
143.45718829930897
21
27.479295277700508
31
0
0
LINE
5
408
100
AcDbEntity
8
0
100
AcDbLine
10
143.45718829930897
20
27.479295277700508
30
0
11
141.02611381197195
21
41.266603819871399
31
0
0
LINE
5
409
100
AcDbEntity
8
0
100
AcDbLine
10
141.02611381197195
20
41.266603819871399
30
0
11
127.23880526980103
21
38.835529332534371
31
0
0
LINE
5
410
100
AcDbEntity
8
0
100
AcDbLine
10
127.23880526980103
20
38.835529332534371
30
0
11
129.66987975713806
21
25.04822079036348
31
0
0
LINE
5
411
100
AcDbEntity
8
0
100
AcDbLine
10
124.69660060442641
20
24.171297493145492
30
0
11
122.26552611708939
21
37.958606035316379
31
0
0
LINE
5
412
100
AcDbEntity
8
0
100
AcDbLine
10
121.38860281987141
20
42.931885188028062
30
0
11
118.95752833253439
21
56.719193730198953
31
0
0
LINE
5
413
100
AcDbEntity
8
0
100
AcDbLine
10
123.93080748524604
20
57.596117027416938
30
0
11
126.36188197258306
21
43.808808485246047
31
0
0
LINE
5
414
100
AcDbEntity
8
0
100
AcDbLine
10
126.36188197258306
20
43.808808485246047
30
0
11
140.14919051475397
21
46.239882972583075
31
0
0
LINE
5
415
100
AcDbEntity
8
0
100
AcDbLine
10
140.14919051475397
20
46.239882972583075
30
0
11
137.71811602741695
21
60.027191514753966
31
0
0
LINE
5
416
100
AcDbEntity
8
0
100
AcDbLine
10
137.71811602741695
20
60.027191514753966
30
0
11
123.93080748524604
21
57.596117027416938
31
0
0
CIRCLE
5
417
100
AcDbEntity
8
0
100
AcDbCircle
10
-42.037000000000006
20
56.896000000000001
30
0
40
0.99999999999999645
210
0
220
-0
230
1
0
CIRCLE
5
418
100
AcDbEntity
8
0
100
AcDbCircle
10
-35.941000000000003
20
56.896000000000001
30
0
40
1.0000000000000007
210
0
220
-0
230
1
0
CIRCLE
5
419
100
AcDbEntity
8
0
100
AcDbCircle
10
-29.972000000000001
20
56.896000000000001
30
0
40
0.99999999999999645
210
0
220
-0
230
1
0
LINE
5
420
100
AcDbEntity
8
0
100
AcDbLine
10
-126.36188197258306
20
43.808808485246047
30
0
11
-140.14919051475397
21
46.239882972583075
31
0
0
LINE
5
421
100
AcDbEntity
8
0
100
AcDbLine
10
-6.0000197382897653
20
65.044600132131961
30
0
11
-6.0000197382897644
21
70.452292739718771
31
0
0
LINE
5
422
100
AcDbEntity
8
0
100
AcDbLine
10
5.9999802617101841
20
65.04460016895213
30
0
11
5.9999802617101849
21
70.452292739889813
31
0
0
ENDSEC
0
SECTION
2
OBJECTS
0
DICTIONARY
5
C
100
AcDbDictionary
3
ACAD_GROUP
350
D
3
ACAD_MLINESTYLE
350
17
0
DICTIONARY
5
D
100
AcDbDictionary
0
DICTIONARY
5
1A
330
C
100
AcDbDictionary
0
DICTIONARY
5
17
100
AcDbDictionary
0
ENDSEC
0
EOF
